<svg width="187" height="52" viewBox="0 0 187 52" fill="none" xmlns="http://www.w3.org/2000/svg">
<path d="M31.881 28.949C30.8438 28.949 29.849 29.3611 29.1155 30.0945C28.3821 30.828 27.97 31.8227 27.97 32.86V33.614C27.9436 36.2683 26.8706 38.8048 24.9843 40.6724C23.0981 42.54 20.5509 43.5876 17.8965 43.5876C15.2421 43.5876 12.695 42.54 10.8087 40.6724C8.92242 38.8048 7.84946 36.2683 7.82301 33.614V20.13C7.83131 19.6111 7.73627 19.0957 7.54342 18.6138C7.35057 18.132 7.06378 17.6934 6.69974 17.3235C6.3357 16.9536 5.90169 16.6598 5.423 16.4593C4.94431 16.2587 4.43051 16.1555 3.91151 16.1555C3.39252 16.1555 2.87871 16.2587 2.40002 16.4593C1.92133 16.6598 1.48732 16.9536 1.12329 17.3235C0.759246 17.6934 0.47245 18.132 0.279604 18.6138C0.0867569 19.0957 -0.00828579 19.6111 1.17563e-05 20.13V33.614C0.0989835 38.2948 2.02793 42.7505 5.3733 46.0259C8.71867 49.3013 13.2142 51.1356 17.896 51.1356C22.5779 51.1356 27.0734 49.3013 30.4187 46.0259C33.7641 42.7505 35.693 38.2948 35.792 33.614V32.863C35.792 31.8257 35.38 30.831 34.6465 30.0975C33.9131 29.3641 32.9183 28.952 31.881 28.952" fill="white"/>
<path d="M31.881 0.988995H19.141C18.6221 0.980697 18.1067 1.07574 17.6248 1.26859C17.143 1.46143 16.7043 1.74823 16.3344 2.11227C15.9645 2.47631 15.6708 2.91031 15.4702 3.389C15.2697 3.86769 15.1664 4.3815 15.1664 4.9005C15.1664 5.41949 15.2697 5.9333 15.4702 6.41199C15.6708 6.89068 15.9645 7.32468 16.3344 7.68872C16.7043 8.05276 17.143 8.33956 17.6248 8.5324C18.1067 8.72525 18.6221 8.82029 19.141 8.812H27.97V17.641C27.97 18.1546 28.0711 18.6632 28.2677 19.1377C28.4642 19.6122 28.7523 20.0433 29.1155 20.4065C29.4787 20.7697 29.9098 21.0577 30.3843 21.2543C30.8588 21.4508 31.3674 21.552 31.881 21.552C32.3946 21.552 32.9032 21.4508 33.3777 21.2543C33.8522 21.0577 34.2833 20.7697 34.6465 20.4065C35.0097 20.0433 35.2977 19.6122 35.4943 19.1377C35.6908 18.6632 35.792 18.1546 35.792 17.641V4.89999C35.792 3.86273 35.3799 2.86795 34.6465 2.1345C33.913 1.40105 32.9182 0.988995 31.881 0.988995Z" fill="white"/>
<path d="M7.81803 4.90002C7.81783 4.12737 7.58855 3.37213 7.15916 2.72978C6.72978 2.08743 6.11958 1.58682 5.40571 1.29123C4.69184 0.995644 3.90636 0.918357 3.14857 1.06914C2.39078 1.21993 1.69471 1.59201 1.14836 2.13835C0.60202 2.6847 0.229935 3.38077 0.0791508 4.13856C-0.0716336 4.89635 0.00565377 5.68183 0.301241 6.3957C0.596829 7.10957 1.09744 7.71977 1.73979 8.14916C2.38214 8.57854 3.13738 8.80782 3.91003 8.80802C4.9465 8.80802 5.94051 8.39629 6.6734 7.66339C7.4063 6.9305 7.81803 5.93649 7.81803 4.90002Z" fill="#FDD400"/>
<path d="M60.796 21.793C60.7933 22.717 60.6194 23.6324 60.283 24.493C59.9338 25.394 59.3871 26.2052 58.683 26.867C57.8707 27.6141 56.9155 28.189 55.875 28.557C54.5341 29.0233 53.1202 29.2441 51.701 29.209C50.4657 29.2169 49.2316 29.1286 48.01 28.945C47.0022 28.7954 46.0066 28.5728 45.031 28.279C44.8675 28.2384 44.7143 28.1641 44.581 28.061C44.5179 28.0154 44.4668 27.9552 44.4319 27.8855C44.3971 27.8159 44.3796 27.7389 44.381 27.661V23.033C44.3813 22.8681 44.4296 22.7069 44.52 22.569C44.579 22.4933 44.66 22.4377 44.7519 22.41C44.8438 22.3822 44.942 22.3836 45.033 22.414C45.364 22.455 45.798 22.502 46.333 22.553C46.868 22.604 47.454 22.661 48.085 22.724C48.716 22.787 49.348 22.837 49.979 22.879C50.61 22.921 51.184 22.941 51.7 22.941C51.8628 22.9612 52.0279 22.9483 52.1855 22.9029C52.3432 22.8575 52.4899 22.7807 52.617 22.677C52.7789 22.4808 52.8614 22.231 52.848 21.977C52.8478 21.8113 52.7874 21.6514 52.678 21.527C52.4711 21.3226 52.2352 21.1498 51.978 21.014L47.323 18.314C46.6511 17.9348 46.0355 17.4636 45.494 16.914C45.043 16.4524 44.6625 15.9267 44.365 15.354C44.0892 14.816 43.8909 14.2416 43.776 13.648C43.6611 13.0499 43.6038 12.4421 43.605 11.833C43.6007 11.0102 43.7318 10.1923 43.993 9.412C44.2565 8.64084 44.7163 7.95157 45.327 7.412C46.0736 6.78016 46.9463 6.31481 47.887 6.047C49.1981 5.67366 50.5582 5.50071 51.921 5.534C52.583 5.534 53.2867 5.56 54.032 5.612C54.7774 5.664 55.496 5.73067 56.188 5.812C56.8807 5.894 57.5114 5.98667 58.08 6.09C58.6487 6.19334 59.109 6.297 59.461 6.401C59.6204 6.43958 59.7689 6.51415 59.895 6.619C59.9547 6.66691 60.0026 6.72789 60.0351 6.79724C60.0675 6.86659 60.0836 6.94246 60.082 7.019V11.645C60.0863 11.811 60.0496 11.9756 59.975 12.124C59.902 12.259 59.73 12.306 59.462 12.263C59.0474 12.2217 58.5304 12.1753 57.911 12.124C57.2917 12.0727 56.633 12.022 55.935 11.972C55.2424 11.9207 54.544 11.879 53.84 11.847C53.136 11.815 52.495 11.8 51.917 11.802C51.8232 11.7887 51.7276 11.7956 51.6367 11.8224C51.5458 11.8491 51.4617 11.895 51.39 11.957C51.3095 12.052 51.2652 12.1725 51.265 12.297C51.2676 12.3728 51.2853 12.4472 51.3173 12.5159C51.3493 12.5847 51.3947 12.6462 51.451 12.697C51.7473 12.9306 52.0702 13.1283 52.413 13.286L56.819 15.613C58.051 16.2036 59.1014 17.1148 59.86 18.251C60.496 19.3194 60.8189 20.545 60.792 21.788" fill="white"/>
<path d="M77.675 28.356C77.5137 28.4701 77.336 28.5591 77.148 28.62C76.5753 28.8045 75.9892 28.9445 75.395 29.039C74.6308 29.1598 73.8577 29.2167 73.084 29.209C69.712 29.209 67.2087 28.299 65.574 26.479C63.9394 24.659 63.1237 22.0423 63.127 18.629V16.116C63.127 12.6813 63.9444 10.059 65.579 8.24902C67.2137 6.43902 69.717 5.53368 73.089 5.53302C73.8783 5.52776 74.6668 5.58494 75.447 5.70402C76.0264 5.78818 76.5961 5.92886 77.148 6.12402C77.3358 6.18551 77.5134 6.27447 77.675 6.38802C77.7236 6.44547 77.7598 6.51235 77.7813 6.58446C77.8028 6.65656 77.8092 6.73233 77.8 6.80702V11.707C77.8 12.1423 77.593 12.329 77.179 12.267C76.848 12.225 76.362 12.167 75.722 12.096C75.0729 12.0237 74.4202 11.9877 73.767 11.988C73.3236 11.9836 72.8812 12.0293 72.448 12.124C72.0544 12.2113 71.6969 12.4172 71.424 12.714C71.111 13.0752 70.8876 13.5052 70.772 13.969C70.5979 14.6695 70.5195 15.3904 70.539 16.112V18.625C70.5182 19.3714 70.5966 20.1172 70.772 20.843C70.8802 21.3087 71.11 21.7373 71.438 22.085C71.7205 22.3601 72.0758 22.5485 72.462 22.628C72.9013 22.7144 73.3483 22.7556 73.796 22.751C74.3304 22.7527 74.8644 22.7267 75.396 22.673C75.9027 22.6217 76.4974 22.555 77.18 22.473C77.26 22.4472 77.3446 22.4394 77.428 22.4501C77.5113 22.4608 77.5912 22.4898 77.662 22.535C77.7176 22.6047 77.7586 22.6849 77.7825 22.7709C77.8064 22.8568 77.8127 22.9466 77.801 23.035V27.935C77.8103 28.0097 77.804 28.0855 77.7825 28.1576C77.761 28.2297 77.7247 28.2966 77.676 28.354" fill="white"/>
<path d="M99.398 18.724C99.4469 20.4214 99.1678 22.1123 98.576 23.704C98.0995 24.9289 97.3514 26.0299 96.388 26.924C95.4842 27.7386 94.4076 28.3379 93.239 28.677C90.8167 29.38 88.2444 29.38 85.822 28.677C84.6541 28.3378 83.5782 27.7385 82.675 26.924C81.7099 26.0286 80.9616 24.925 80.487 23.697C79.8941 22.1056 79.6146 20.4145 79.664 18.717V16.024C79.6146 14.3265 79.8941 12.6354 80.487 11.044C80.9621 9.8154 81.7103 8.71089 82.675 7.814C83.5789 7.00015 84.655 6.40122 85.823 6.062C88.2451 5.35702 90.8179 5.35702 93.24 6.062C94.4079 6.40141 95.4841 7.00032 96.388 7.814C97.3512 8.71122 98.0989 9.81478 98.575 11.042C99.1668 12.6337 99.4459 14.3246 99.397 16.022L99.398 18.724ZM91.982 16.024C92.0675 14.9468 91.8696 13.866 91.408 12.889C91.1824 12.6082 90.8966 12.3816 90.5717 12.2259C90.2469 12.0702 89.8913 11.9894 89.531 11.9894C89.1708 11.9894 88.8152 12.0702 88.4903 12.2259C88.1655 12.3816 87.8797 12.6082 87.654 12.889C87.1901 13.8653 86.9904 14.9463 87.075 16.024V18.724C86.9889 19.8012 87.1868 20.8822 87.649 21.859C87.8747 22.1398 88.1605 22.3664 88.4853 22.5221C88.8102 22.6778 89.1658 22.7586 89.526 22.7586C89.8863 22.7586 90.2419 22.6778 90.5667 22.5221C90.8916 22.3664 91.1774 22.1398 91.403 21.859C91.8646 20.882 92.0625 19.8012 91.977 18.724L91.982 16.024Z" fill="white"/>
<path d="M115.811 28.65C115.685 28.7548 115.536 28.8291 115.376 28.867C114.755 28.9697 114.021 29.0527 113.176 29.116C112.331 29.1793 111.503 29.21 110.693 29.208C109.706 29.2068 108.721 29.1289 107.746 28.975C106.79 28.8337 105.874 28.4901 105.061 27.967C104.232 27.4125 103.559 26.6551 103.106 25.767C102.549 24.5746 102.288 23.265 102.347 21.95V6.46302C102.347 6.38052 102.365 6.29901 102.399 6.22409C102.434 6.14917 102.484 6.08262 102.547 6.02902C102.667 5.9107 102.828 5.84395 102.997 5.84302H109.049C109.212 5.84707 109.368 5.9137 109.483 6.0291C109.598 6.14451 109.665 6.29986 109.669 6.46302V21.948C109.635 22.2299 109.713 22.5138 109.886 22.739C110.123 22.8997 110.409 22.9706 110.693 22.939H115.371C115.535 22.9428 115.69 23.0095 115.806 23.1251C115.922 23.2408 115.988 23.3965 115.992 23.56V28.244C115.994 28.3205 115.978 28.3963 115.946 28.4656C115.913 28.535 115.866 28.596 115.806 28.644" fill="white"/>
<path d="M131.45 28.898C131.371 28.8994 131.293 28.8834 131.221 28.8513C131.149 28.8191 131.085 28.7716 131.033 28.712C130.919 28.5896 130.839 28.4397 130.8 28.277L130.239 24.803H125.524L124.966 28.277C124.927 28.4395 124.846 28.5892 124.733 28.712C124.681 28.7716 124.616 28.8191 124.544 28.8512C124.472 28.8833 124.393 28.8993 124.314 28.898H117.86C117.78 28.9084 117.698 28.8965 117.624 28.8637C117.551 28.8309 117.487 28.7785 117.441 28.712C117.404 28.6465 117.381 28.5741 117.373 28.4994C117.365 28.4246 117.372 28.3489 117.394 28.277L121.087 9.53602C121.197 8.83484 121.462 8.16696 121.862 7.58102C122.234 7.06441 122.723 6.64406 123.29 6.35502C123.925 6.0397 124.606 5.82673 125.307 5.72402C127.015 5.47599 128.749 5.47599 130.457 5.72402C131.154 5.82692 131.829 6.04169 132.457 6.36002C133.017 6.65267 133.501 7.07257 133.869 7.58602C134.271 8.17467 134.546 8.84044 134.676 9.54102L138.369 28.282C138.39 28.354 138.397 28.4296 138.389 28.5042C138.381 28.5789 138.358 28.6512 138.322 28.717C138.276 28.7832 138.212 28.8355 138.138 28.8683C138.065 28.9011 137.983 28.9131 137.903 28.903L131.45 28.898ZM128.162 11.893C128.147 11.7927 128.121 11.6944 128.084 11.6C128.066 11.5635 128.037 11.5333 128.001 11.5137C127.966 11.494 127.925 11.4858 127.884 11.49C127.843 11.4847 127.802 11.4925 127.766 11.5123C127.73 11.5321 127.701 11.5628 127.684 11.6C127.645 11.6939 127.619 11.7924 127.606 11.893L126.458 19.093H129.313L128.162 11.893Z" fill="white"/>
<path d="M157.438 28.154C157.271 28.2504 157.086 28.3136 156.895 28.34C155.943 28.5467 154.836 28.743 153.574 28.929C152.216 29.123 150.846 29.2165 149.474 29.209C148.768 29.2062 148.064 29.1544 147.365 29.054C146.61 28.9484 145.872 28.7506 145.165 28.465C144.42 28.165 143.714 27.774 143.065 27.301C142.359 26.78 141.754 26.1336 141.281 25.394C140.727 24.523 140.313 23.5699 140.056 22.57C139.734 21.3024 139.583 19.9976 139.605 18.69V16.053C139.528 14.1746 139.872 12.3026 140.614 10.575C141.144 9.38812 141.95 8.34506 142.965 7.53274C143.98 6.72041 145.174 6.16235 146.448 5.90502C147.544 5.66748 148.662 5.54283 149.783 5.53302C151.223 5.51408 152.662 5.62284 154.083 5.85802C155.03 6.02026 155.967 6.23289 156.891 6.49502C157.094 6.54375 157.284 6.63361 157.451 6.75902C157.526 6.8851 157.558 7.03209 157.543 7.17802V11.739C157.557 11.9044 157.525 12.0704 157.451 12.219C157.388 12.313 157.243 12.339 157.016 12.297C156.789 12.276 156.462 12.246 156.039 12.205C155.616 12.164 155.148 12.127 154.639 12.097C154.13 12.067 153.603 12.04 153.056 12.019C152.509 11.998 151.996 11.987 151.52 11.987C150.809 11.9769 150.098 12.0288 149.395 12.142C148.89 12.2164 148.413 12.4235 148.014 12.742C147.644 13.0725 147.38 13.5044 147.254 13.984C147.082 14.658 147.003 15.3526 147.021 16.048V18.748C146.998 19.5479 147.084 20.3472 147.276 21.124C147.385 21.5846 147.598 22.0143 147.897 22.381C148.104 22.6273 148.388 22.797 148.703 22.863C148.959 22.9113 149.219 22.9374 149.479 22.941C149.624 22.941 149.794 22.935 149.992 22.925C150.165 22.9187 150.336 22.8926 150.503 22.847V17.262C150.507 17.0985 150.573 16.9428 150.689 16.8271C150.805 16.7115 150.961 16.6448 151.124 16.641H156.924C157.087 16.6451 157.243 16.7118 157.358 16.8275C157.474 16.9431 157.54 17.0987 157.544 17.262V27.662C157.544 27.932 157.509 28.097 157.436 28.162" fill="white"/>
<path d="M175.819 28.665C175.699 28.7763 175.547 28.8463 175.384 28.865C174.744 28.947 173.886 29.0247 172.809 29.098C171.732 29.1713 170.512 29.2073 169.147 29.206C168.16 29.2049 167.175 29.127 166.2 28.973C165.243 28.832 164.328 28.488 163.515 27.964C162.686 27.4102 162.012 26.6527 161.56 25.764C161.002 24.5718 160.741 23.2621 160.8 21.947V12.794C160.741 11.479 161.002 10.1693 161.56 8.97701C162.013 8.08888 162.686 7.33152 163.515 6.77701C164.328 6.25331 165.243 5.90962 166.2 5.76901C167.175 5.61506 168.16 5.53716 169.147 5.53601C170.512 5.53601 171.733 5.57201 172.809 5.64401C173.885 5.71601 174.743 5.79368 175.384 5.87701C175.546 5.89623 175.699 5.96622 175.819 6.07701C175.879 6.12943 175.926 6.19412 175.958 6.26662C175.99 6.33913 176.006 6.41772 176.005 6.49701V11.18C176.001 11.3435 175.935 11.4993 175.819 11.6149C175.703 11.7305 175.548 11.7972 175.384 11.801H169.147C168.863 11.7694 168.577 11.8403 168.34 12.001C168.167 12.2262 168.089 12.5101 168.123 12.792V14.468H175.384C175.548 14.4718 175.703 14.5385 175.819 14.6541C175.935 14.7698 176.001 14.9255 176.005 15.089V19.464C176.001 19.6274 175.934 19.7828 175.818 19.8984C175.703 20.0139 175.547 20.0807 175.384 20.085H168.123V21.945C168.089 22.2272 168.167 22.5115 168.34 22.737C168.577 22.8977 168.863 22.9686 169.147 22.937H175.384C175.547 22.9408 175.703 23.0073 175.819 23.1228C175.934 23.2382 176.001 23.3937 176.005 23.557V28.243C176.006 28.3222 175.991 28.4007 175.958 28.4731C175.926 28.5455 175.879 28.61 175.819 28.662" fill="white"/>
<path d="M77.928 46.634C77.928 46.804 77.837 46.889 77.657 46.889H75.422C75.3838 46.8905 75.3457 46.8842 75.31 46.8706C75.2743 46.8571 75.2416 46.8364 75.214 46.81C75.1588 46.7521 75.1204 46.6801 75.103 46.602L74.528 43.982H71.253L70.679 46.601C70.6604 46.6791 70.6214 46.7509 70.566 46.809C70.5385 46.8355 70.5059 46.8562 70.4701 46.8698C70.4344 46.8834 70.3962 46.8896 70.358 46.888H68.123C67.941 46.888 67.852 46.803 67.852 46.633C67.8516 46.6219 67.854 46.6109 67.859 46.601C67.8644 46.5856 67.8668 46.5693 67.866 46.553L70.246 36.653C70.3202 36.3194 70.4614 36.0044 70.661 35.727C70.8294 35.5044 71.0449 35.3217 71.292 35.192C71.5353 35.068 71.797 34.9842 72.067 34.944C72.342 34.9016 72.6198 34.8802 72.898 34.88C73.1736 34.88 73.4488 34.9014 73.721 34.944C73.988 34.9849 74.2467 35.0687 74.487 35.192C74.7345 35.3212 74.9501 35.504 75.118 35.727C75.3182 36.0041 75.4595 36.3192 75.533 36.653L77.913 46.553C77.912 46.5695 77.9151 46.586 77.922 46.601C77.9264 46.6111 77.9288 46.622 77.929 46.633M73.106 37.385C73.0926 37.3215 73.0711 37.26 73.042 37.202C73.021 37.164 72.973 37.146 72.898 37.146C72.781 37.146 72.706 37.225 72.674 37.385L71.7 41.794H74.08L73.106 37.385Z" fill="white"/>
<path d="M93.931 43.454C93.9533 44.0614 93.8154 44.6639 93.531 45.201C93.2735 45.6552 92.902 46.0344 92.453 46.301C91.9595 46.5876 91.4169 46.7799 90.853 46.868C90.2065 46.9777 89.5518 47.0312 88.896 47.028C88.631 47.028 88.358 47.022 88.082 47.012C87.806 47.002 87.536 46.989 87.275 46.972C87.014 46.955 86.775 46.937 86.548 46.916C86.321 46.895 86.133 46.868 85.974 46.835C85.7228 46.8132 85.4849 46.7127 85.294 46.548C85.1367 46.3311 85.0654 46.0635 85.094 45.797V36.087C85.0669 35.8218 85.1349 35.5556 85.286 35.336C85.4678 35.1724 85.6975 35.0718 85.941 35.049C86.079 35.027 86.257 35.007 86.476 34.985C86.695 34.963 86.934 34.945 87.195 34.929C87.456 34.913 87.724 34.9 88.002 34.889C88.28 34.878 88.545 34.873 88.802 34.873C89.4927 34.8671 90.1824 34.9234 90.863 35.041C91.4203 35.1311 91.9577 35.3175 92.451 35.592C92.8799 35.8343 93.236 36.1872 93.482 36.614C93.7434 37.1057 93.8703 37.6576 93.85 38.214V38.501C93.8575 38.9924 93.7361 39.4771 93.498 39.907C93.2714 40.3143 92.9261 40.6429 92.508 40.849C92.9468 41.0651 93.3141 41.4029 93.5661 41.8221C93.818 42.2413 93.944 42.7241 93.929 43.213L93.931 43.454ZM91.215 38.39C91.2278 38.2001 91.1895 38.0102 91.104 37.8402C91.0185 37.6701 90.8891 37.5261 90.729 37.423C90.1933 37.1724 89.6016 37.0652 89.012 37.112H88.4C88.277 37.112 88.16 37.112 88.048 37.119C87.936 37.126 87.853 37.126 87.8 37.126V39.89H89.588C89.8553 39.8983 90.1222 39.8645 90.379 39.79C90.5628 39.7357 90.7332 39.6434 90.879 39.519C90.9989 39.4097 91.0897 39.2722 91.143 39.119C91.1963 38.9619 91.223 38.7969 91.222 38.631L91.215 38.39ZM91.279 43.213C91.2856 42.8454 91.1544 42.4886 90.911 42.213C90.7325 42.0526 90.5221 41.9318 90.2935 41.8585C90.065 41.7853 89.8235 41.7612 89.585 41.788H87.8V44.776H88.08C88.202 44.776 88.329 44.776 88.462 44.783C88.595 44.79 88.723 44.79 88.846 44.79H89.11C89.7009 44.8461 90.2946 44.7183 90.81 44.424C90.9661 44.3014 91.0904 44.1432 91.1725 43.9625C91.2547 43.7819 91.2922 43.5842 91.282 43.386L91.279 43.213Z" fill="white"/>
<path d="M104.17 42.734C104.17 42.99 104.059 43.118 103.835 43.118H98.74V43.15C98.7389 43.3688 98.7655 43.5869 98.819 43.799C98.8677 44.0013 98.9602 44.1904 99.09 44.353C99.2252 44.5163 99.3963 44.646 99.59 44.732C99.8406 44.835 100.11 44.8834 100.381 44.874C100.636 44.874 100.907 44.874 101.195 44.859L102.049 44.827C102.332 44.817 102.595 44.802 102.84 44.787C103.085 44.772 103.287 44.752 103.446 44.73H103.494C103.694 44.73 103.794 44.816 103.794 44.986V46.211C103.801 46.3115 103.778 46.4117 103.73 46.5C103.661 46.5799 103.564 46.6315 103.459 46.645C102.965 46.7706 102.464 46.8674 101.959 46.935C101.371 47.0062 100.779 47.0396 100.187 47.035C99.7003 47.0334 99.2162 46.9634 98.749 46.827C98.2747 46.691 97.8342 46.457 97.456 46.14C97.0531 45.7942 96.7361 45.3594 96.53 44.87C96.2787 44.2546 96.1588 43.5935 96.178 42.929V41.808C96.1708 41.2163 96.2624 40.6275 96.449 40.066C96.6139 39.5721 96.8837 39.1197 97.24 38.74C97.5988 38.3696 98.0348 38.0828 98.517 37.9C99.0623 37.6929 99.6418 37.5911 100.225 37.6C100.813 37.5884 101.398 37.6969 101.943 37.919C102.416 38.1166 102.839 38.4169 103.181 38.798C103.518 39.1835 103.771 39.6351 103.924 40.124C104.093 40.6667 104.177 41.2325 104.172 41.801L104.17 42.734ZM101.646 41.457C101.683 40.9809 101.547 40.5074 101.262 40.124C101.13 39.9769 100.967 39.8611 100.785 39.7852C100.603 39.7092 100.406 39.675 100.209 39.685C100.009 39.6763 99.8088 39.7118 99.6237 39.7891C99.4386 39.8664 99.2728 39.9834 99.138 40.132C98.8455 40.5094 98.703 40.9818 98.738 41.458V41.522H101.644L101.646 41.457Z" fill="white"/>
<path d="M111.39 46.904C111.145 46.946 110.932 46.977 110.751 47.004C110.544 47.0259 110.336 47.0362 110.128 47.035C109.741 47.0405 109.355 47.007 108.975 46.935C108.666 46.8771 108.378 46.7356 108.143 46.526C107.903 46.2965 107.727 46.0074 107.635 45.688C107.506 45.2394 107.447 44.7736 107.461 44.307V39.669L106.183 39.461C106.098 39.4398 106.018 39.3987 105.952 39.341C105.92 39.315 105.895 39.2822 105.877 39.2449C105.86 39.2077 105.851 39.1671 105.852 39.126V38.071C105.857 37.9839 105.894 37.9017 105.956 37.8399C106.018 37.7782 106.1 37.7412 106.187 37.736H107.466V36.426C107.465 36.386 107.474 36.3463 107.491 36.3102C107.509 36.2741 107.534 36.2425 107.566 36.218C107.63 36.1648 107.706 36.1269 107.787 36.107L109.723 35.772H109.771C109.847 35.7683 109.921 35.7941 109.978 35.844C110.005 35.8696 110.026 35.9008 110.04 35.9353C110.053 35.9699 110.059 36.0069 110.057 36.044V37.737H111.366C111.408 37.7374 111.45 37.7465 111.488 37.7637C111.527 37.781 111.562 37.8059 111.59 37.837C111.621 37.866 111.646 37.901 111.663 37.9398C111.68 37.9786 111.689 38.0205 111.69 38.063V39.368C111.69 39.4105 111.68 39.4524 111.663 39.4913C111.646 39.5302 111.621 39.5651 111.59 39.594C111.562 39.6252 111.527 39.6502 111.488 39.6674C111.45 39.6847 111.408 39.6937 111.366 39.694H110.048V44.343C110.03 44.5511 110.058 44.7607 110.129 44.957C110.182 45.048 110.329 45.093 110.576 45.093H111.358C111.582 45.093 111.693 45.184 111.693 45.363V46.588C111.693 46.768 111.593 46.8733 111.393 46.904" fill="white"/>
<path d="M118.912 46.904C118.666 46.946 118.452 46.977 118.272 47.004C118.066 47.0258 117.858 47.0362 117.651 47.035C117.264 47.0406 116.877 47.0071 116.497 46.935C116.188 46.8737 115.902 46.7296 115.669 46.518C115.429 46.2881 115.254 45.9991 115.161 45.68C115.032 45.2314 114.973 44.7656 114.987 44.299V39.669L113.71 39.461C113.624 39.4399 113.544 39.3988 113.477 39.341C113.446 39.3148 113.42 39.2819 113.403 39.2447C113.386 39.2075 113.377 39.167 113.377 39.126V38.071C113.382 37.9836 113.42 37.9011 113.482 37.8393C113.544 37.7775 113.627 37.7408 113.714 37.736H114.991V36.426C114.99 36.386 114.999 36.3463 115.016 36.3102C115.034 36.2741 115.059 36.2425 115.091 36.218C115.156 36.1651 115.231 36.1272 115.312 36.107L117.248 35.772H117.298C117.374 35.7691 117.448 35.7948 117.505 35.844C117.532 35.8698 117.552 35.901 117.566 35.9355C117.58 35.97 117.586 36.007 117.584 36.044V37.737H118.892C118.934 37.7373 118.976 37.7463 119.015 37.7635C119.053 37.7807 119.088 37.8058 119.116 37.837C119.147 37.8661 119.172 37.9011 119.189 37.9399C119.206 37.9787 119.215 38.0206 119.216 38.063V39.368C119.216 39.4105 119.206 39.4524 119.189 39.4913C119.172 39.5301 119.147 39.5651 119.116 39.594C119.088 39.6255 119.053 39.6507 119.015 39.668C118.976 39.6852 118.934 39.6941 118.892 39.694H117.569V44.343C117.55 44.5512 117.578 44.7609 117.65 44.957C117.701 45.048 117.85 45.093 118.095 45.093H118.877C119.101 45.093 119.212 45.184 119.212 45.363V46.588C119.212 46.768 119.112 46.874 118.912 46.904Z" fill="white"/>
<path d="M129.229 42.734C129.229 42.99 129.116 43.118 128.892 43.118H123.799V43.15C123.797 43.3689 123.824 43.587 123.878 43.799C123.926 44.0013 124.018 44.1904 124.148 44.353C124.284 44.5171 124.457 44.6469 124.653 44.732C124.904 44.8352 125.173 44.8836 125.444 44.874C125.697 44.874 125.968 44.874 126.258 44.859L127.112 44.827C127.393 44.817 127.657 44.802 127.901 44.787C128.145 44.772 128.348 44.752 128.507 44.73H128.557C128.757 44.73 128.857 44.816 128.857 44.986V46.211C128.864 46.3115 128.841 46.4117 128.793 46.5C128.724 46.5799 128.627 46.6315 128.522 46.645C128.028 46.7706 127.527 46.8674 127.022 46.935C126.434 47.0062 125.842 47.0396 125.25 47.035C124.763 47.0333 124.279 46.9633 123.812 46.827C123.338 46.6907 122.897 46.4567 122.519 46.14C122.116 45.7942 121.799 45.3594 121.593 44.87C121.342 44.2546 121.222 43.5935 121.241 42.929V41.808C121.234 41.2163 121.325 40.6276 121.512 40.066C121.677 39.5721 121.947 39.1197 122.303 38.74C122.66 38.3708 123.094 38.0847 123.574 37.902C124.119 37.6946 124.699 37.5928 125.282 37.602C125.87 37.5903 126.454 37.6989 126.999 37.921C127.472 38.1187 127.895 38.4189 128.237 38.8C128.574 39.1855 128.827 39.6372 128.98 40.126C129.15 40.6687 129.234 41.2345 129.229 41.803V42.734ZM126.705 41.457C126.741 40.981 126.605 40.5078 126.321 40.124C126.189 39.977 126.026 39.8613 125.843 39.7853C125.661 39.7094 125.463 39.6751 125.266 39.685C125.066 39.6763 124.866 39.7119 124.681 39.7891C124.496 39.8664 124.33 39.9835 124.195 40.132C123.902 40.5094 123.76 40.9818 123.795 41.458V41.522H126.701L126.705 41.457Z" fill="white"/>
<path d="M136.656 39.666C136.638 39.6968 136.613 39.7223 136.582 39.7399C136.551 39.7575 136.516 39.7665 136.48 39.766H136.353C135.98 39.7629 135.609 39.8169 135.253 39.926C134.921 40.0284 134.6 40.1623 134.294 40.326V46.557C134.292 46.644 134.256 46.7269 134.194 46.788C134.166 46.8195 134.131 46.8447 134.093 46.8619C134.054 46.8792 134.012 46.8881 133.97 46.888H132.04C131.953 46.8828 131.871 46.8458 131.809 46.7841C131.747 46.7223 131.71 46.6401 131.705 46.553V38.053C131.705 38.0109 131.714 37.9693 131.731 37.9309C131.749 37.8924 131.774 37.8581 131.805 37.83C131.833 37.7987 131.868 37.7737 131.907 37.7565C131.945 37.7393 131.987 37.7303 132.029 37.73H133.929C134.013 37.7323 134.094 37.7671 134.153 37.827C134.213 37.887 134.247 37.9676 134.248 38.052V38.374C134.55 38.1259 134.894 37.9327 135.263 37.803C135.63 37.6717 136.016 37.6041 136.405 37.603C136.489 37.606 136.569 37.641 136.628 37.7008C136.688 37.7607 136.722 37.8408 136.724 37.925V39.453C136.724 39.5275 136.702 39.6003 136.66 39.662" fill="white"/>
<path d="M156.747 35.259L155.26 45.72C155.253 45.9031 155.208 46.0828 155.129 46.2478C155.049 46.4129 154.936 46.5596 154.797 46.679C154.495 46.864 154.144 46.9529 153.791 46.934H152.88C152.558 46.9422 152.239 46.859 151.962 46.694C151.674 46.495 151.476 46.1908 151.411 45.847L150.15 41.072C150.14 41.0309 150.121 40.9927 150.093 40.961C150.066 40.9481 150.035 40.9426 150.005 40.945C149.978 40.9415 149.95 40.9471 149.926 40.961C149.905 40.9956 149.889 41.0329 149.878 41.072L148.617 45.847C148.552 46.1908 148.354 46.495 148.066 46.694C147.789 46.8586 147.47 46.9418 147.148 46.934H146.237C145.884 46.9533 145.533 46.8644 145.231 46.679C145.092 46.5596 144.979 46.4129 144.899 46.2478C144.82 46.0828 144.775 45.9031 144.768 45.72L143.283 35.259V35.227C143.278 35.1945 143.283 35.1614 143.298 35.1317C143.312 35.102 143.334 35.0771 143.362 35.06C143.417 35.0331 143.477 35.0191 143.538 35.019H145.71C145.859 35.019 145.944 35.119 145.966 35.319L146.876 43.879C146.886 44.018 146.918 44.087 146.976 44.087C147.034 44.087 147.055 44.018 147.087 43.879L148.237 39.488C148.259 39.364 148.306 39.2458 148.375 39.1402C148.444 39.0345 148.533 38.9437 148.637 38.873C148.817 38.7718 149.02 38.7194 149.227 38.721H150.809C151.016 38.7198 151.219 38.7721 151.399 38.873C151.503 38.9437 151.592 39.0345 151.661 39.1402C151.73 39.2458 151.777 39.364 151.799 39.488L152.949 43.879C152.981 44.018 153.018 44.087 153.06 44.087C153.102 44.087 153.145 44.018 153.16 43.879L154.071 35.319C154.093 35.119 154.178 35.019 154.327 35.019H156.499C156.56 35.0191 156.62 35.0331 156.675 35.06C156.703 35.0771 156.726 35.102 156.74 35.1317C156.754 35.1614 156.759 35.1945 156.754 35.227L156.747 35.259Z" fill="white"/>
<path d="M165.516 46.568C165.514 46.6519 165.479 46.7317 165.42 46.7911C165.361 46.8504 165.281 46.8847 165.197 46.887H163.409C163.367 46.8868 163.325 46.8777 163.286 46.8605C163.248 46.8433 163.213 46.8183 163.185 46.787C163.154 46.7589 163.128 46.7246 163.111 46.6862C163.094 46.6477 163.085 46.6061 163.085 46.564V46.308C162.784 46.5283 162.454 46.7056 162.104 46.835C161.706 46.9712 161.287 47.0362 160.866 47.027C160.523 47.0282 160.182 46.9825 159.851 46.891C159.52 46.8032 159.214 46.6403 158.956 46.4148C158.699 46.1893 158.497 45.9074 158.366 45.591C158.2 45.1751 158.121 44.7296 158.135 44.282V44.14C158.103 43.7468 158.173 43.352 158.336 42.993C158.5 42.634 158.752 42.3225 159.069 42.088C159.985 41.585 161.027 41.3601 162.069 41.441H162.93V40.867C162.93 40.409 162.825 40.111 162.611 39.972C162.344 39.8197 162.039 39.7475 161.732 39.764C161.477 39.764 161.22 39.767 160.959 39.773C160.698 39.779 160.448 39.786 160.208 39.796C159.968 39.806 159.752 39.819 159.562 39.837C159.372 39.855 159.21 39.866 159.082 39.877H159.003C158.928 39.8801 158.855 39.8575 158.795 39.813C158.766 39.784 158.744 39.7488 158.73 39.7101C158.716 39.6713 158.711 39.6299 158.716 39.589V38.294C158.714 38.2088 158.744 38.126 158.799 38.0612C158.855 37.9964 158.932 37.954 159.016 37.942C159.316 37.869 159.716 37.793 160.221 37.719C160.737 37.6433 161.257 37.6055 161.778 37.606C162.303 37.6 162.826 37.6622 163.335 37.791C163.764 37.8952 164.164 38.091 164.51 38.365C164.836 38.6346 165.091 38.98 165.253 39.371C165.441 39.8461 165.531 40.3543 165.517 40.865L165.516 46.568ZM162.976 42.974H162.066C161.835 42.9695 161.604 42.9937 161.379 43.046C161.22 43.0829 161.072 43.1565 160.947 43.261C160.839 43.3601 160.762 43.4877 160.724 43.629C160.679 43.7956 160.658 43.9675 160.66 44.14V44.284C160.66 44.6253 160.743 44.8437 160.908 44.939C161.145 45.0509 161.406 45.1008 161.667 45.084C161.902 45.0863 162.136 45.0526 162.361 44.984C162.572 44.9168 162.777 44.8339 162.976 44.736V42.974Z" fill="white"/>
<path d="M176.009 38.023C176.009 38.045 176.006 38.0583 176 38.063C175.994 38.0754 175.992 38.0893 175.993 38.103L173.31 47.511C173.199 47.9033 173.055 48.2853 172.879 48.653C172.73 48.9626 172.517 49.2373 172.255 49.459C171.969 49.6889 171.637 49.8552 171.281 49.947C170.801 50.0687 170.307 50.1248 169.812 50.114C169.663 50.114 169.499 50.107 169.312 50.091C169.125 50.075 168.95 50.056 168.769 50.035C168.588 50.014 168.417 49.987 168.258 49.956C168.129 49.9305 168.001 49.8971 167.876 49.856C167.796 49.8275 167.719 49.7941 167.643 49.756C167.61 49.7385 167.584 49.7119 167.566 49.6794C167.548 49.6469 167.54 49.6099 167.543 49.573V48.276C167.543 48.235 167.552 48.1945 167.569 48.1573C167.586 48.1201 167.612 48.0873 167.643 48.061C167.704 48.0039 167.784 47.9724 167.867 47.973H167.899C168.026 47.985 168.177 47.995 168.353 48.005C168.529 48.015 168.71 48.028 168.896 48.046C169.082 48.064 169.264 48.074 169.439 48.086C169.614 48.098 169.766 48.101 169.893 48.101C170.13 48.1155 170.365 48.0546 170.565 47.927C170.758 47.7544 170.892 47.5251 170.947 47.272L171.091 46.772H170.852C170.71 46.7732 170.568 46.7598 170.429 46.732C170.287 46.7012 170.153 46.6386 170.038 46.549C169.89 46.4282 169.767 46.2789 169.678 46.11C169.542 45.8495 169.437 45.5735 169.367 45.288L167.261 38.102C167.25 38.0661 167.244 38.0286 167.245 37.991C167.245 37.821 167.352 37.736 167.566 37.736H169.69C169.728 37.734 169.766 37.7409 169.801 37.7562C169.835 37.7714 169.866 37.7947 169.89 37.824C169.939 37.8875 169.973 37.9609 169.99 38.039L171.427 44.044C171.469 44.244 171.534 44.344 171.619 44.344H171.763L173.248 38.035C173.268 37.9538 173.309 37.8795 173.368 37.82C173.396 37.7913 173.43 37.7686 173.467 37.7535C173.505 37.7383 173.545 37.731 173.585 37.732H175.709C175.788 37.7299 175.865 37.7582 175.924 37.811C175.953 37.8373 175.976 37.8695 175.991 37.9054C176.006 37.9413 176.013 37.98 176.012 38.019" fill="white"/>
<path d="M60.796 43.742H45.412C45.0919 43.742 44.7849 43.6148 44.5585 43.3885C44.3322 43.1621 44.205 42.8551 44.205 42.535C44.205 42.2149 44.3322 41.9079 44.5585 41.6815C44.7849 41.4552 45.0919 41.328 45.412 41.328H60.796C61.1161 41.328 61.4231 41.4552 61.6495 41.6815C61.8759 41.9079 62.003 42.2149 62.003 42.535C62.003 42.8551 61.8759 43.1621 61.6495 43.3885C61.4231 43.6148 61.1161 43.742 60.796 43.742Z" fill="white"/>
<path d="M181.553 1.07801H180.193V5.58601C180.194 5.62255 180.182 5.65823 180.158 5.68601C180.147 5.69942 180.133 5.71017 180.117 5.71744C180.102 5.72472 180.084 5.72833 180.067 5.72801H179.683C179.666 5.72833 179.648 5.72472 179.633 5.71744C179.617 5.71017 179.603 5.69942 179.592 5.68601C179.568 5.65823 179.556 5.62255 179.557 5.58601V1.07801H178.193C178.158 1.07954 178.123 1.06973 178.093 1.05001C178.079 1.04132 178.068 1.02913 178.061 1.01472C178.053 1.0003 178.05 0.984179 178.051 0.96801V0.66801C178.051 0.650933 178.054 0.633999 178.061 0.618551C178.069 0.603103 178.08 0.589565 178.093 0.57901C178.12 0.553784 178.156 0.539841 178.193 0.54001H181.55C181.638 0.54001 181.682 0.58201 181.682 0.66501V0.96501C181.682 1.03834 181.638 1.07501 181.55 1.07501" fill="white"/>
<path d="M186.653 5.68301C186.64 5.69664 186.625 5.70743 186.607 5.71467C186.59 5.7219 186.572 5.72543 186.553 5.72501H186.215C186.178 5.72373 186.143 5.70837 186.118 5.68212C186.092 5.65587 186.077 5.62074 186.077 5.58401V1.44701C186.077 1.43401 186.077 1.42601 186.071 1.42601C186.065 1.42601 186.061 1.42601 186.056 1.43901L185.056 3.50601C185.027 3.56423 184.987 3.61594 184.937 3.65801C184.878 3.69664 184.807 3.71425 184.737 3.70801H184.415C184.346 3.71373 184.278 3.69612 184.22 3.65801C184.17 3.616 184.129 3.56429 184.1 3.50601L183.1 1.43901C183.1 1.43001 183.09 1.42601 183.085 1.42601C183.08 1.42601 183.078 1.43301 183.078 1.44701V5.58501C183.078 5.62174 183.063 5.65687 183.037 5.68312C183.012 5.70937 182.977 5.72473 182.94 5.72601H182.602C182.583 5.72643 182.565 5.7229 182.548 5.71567C182.53 5.70843 182.515 5.69764 182.502 5.68401C182.489 5.67092 182.478 5.65533 182.471 5.63816C182.464 5.62098 182.461 5.60257 182.461 5.58401V0.740009C182.461 0.686966 182.482 0.636095 182.52 0.598588C182.557 0.561081 182.608 0.540009 182.661 0.540009H183.109C183.158 0.536344 183.208 0.544932 183.253 0.565009C183.289 0.586963 183.318 0.619881 183.334 0.659009L184.488 3.05201C184.511 3.10301 184.539 3.12801 184.571 3.12801C184.603 3.12801 184.631 3.10301 184.656 3.05201L185.821 0.659009C185.838 0.620232 185.866 0.587468 185.902 0.565009C185.947 0.545095 185.996 0.53651 186.045 0.540009H186.495C186.548 0.540009 186.599 0.561081 186.636 0.598588C186.674 0.636095 186.695 0.686966 186.695 0.740009V5.58501C186.696 5.60362 186.692 5.62214 186.685 5.63936C186.678 5.65659 186.667 5.67214 186.654 5.68501" fill="white"/>
</svg>
