<svg width="23" height="23" viewBox="0 0 23 23" fill="none" xmlns="http://www.w3.org/2000/svg">
<path d="M11.493 22.051C9.40759 22.0508 7.36911 21.4323 5.63529 20.2736C3.90147 19.1148 2.55016 17.468 1.75226 15.5413C0.954367 13.6147 0.745729 11.4946 1.15268 9.44936C1.55964 7.40409 2.56393 5.52543 4.03858 4.05093C5.51322 2.57642 7.39198 1.57231 9.43729 1.16555C11.4826 0.758789 13.6026 0.967629 15.5292 1.76571C17.4558 2.56379 19.1025 3.91526 20.261 5.64919C21.4196 7.38312 22.0379 9.42165 22.0379 11.507V11.807C21.9598 14.5513 20.8144 17.1569 18.8452 19.0699C16.876 20.9829 14.2384 22.0524 11.493 22.051ZM11.493 10.474L14.593 13.583C14.6649 13.6571 14.7507 13.7163 14.8456 13.7573C14.9404 13.7982 15.0424 13.82 15.1456 13.8215C15.2489 13.823 15.3515 13.8041 15.4474 13.7659C15.5434 13.7277 15.6309 13.671 15.705 13.599L15.7109 13.593C15.7864 13.519 15.8463 13.4306 15.887 13.333C15.9277 13.2355 15.9485 13.1307 15.9479 13.025C15.947 12.9225 15.9255 12.8212 15.8848 12.7271C15.8441 12.633 15.785 12.5479 15.7109 12.477L12.0519 8.79702C11.9042 8.64936 11.7038 8.5664 11.4949 8.5664C11.286 8.5664 11.0857 8.64936 10.938 8.79702L7.27894 12.477C7.20435 12.5472 7.1452 12.6322 7.10526 12.7266C7.06532 12.8209 7.04546 12.9226 7.04694 13.025C7.04542 13.1306 7.06519 13.2354 7.10505 13.3331C7.14491 13.4309 7.20403 13.5196 7.27894 13.594C7.42809 13.7399 7.62834 13.8217 7.83695 13.822C7.94161 13.8222 8.04522 13.8011 8.14148 13.76C8.23775 13.7189 8.32465 13.6587 8.39695 13.583L11.497 10.474H11.493Z" fill="#60269E"/>
</svg>
