<svg width="187" height="52" viewBox="0 0 187 52" fill="none" xmlns="http://www.w3.org/2000/svg">
<mask id="mask0_3_1237" style="mask-type:luminance" maskUnits="userSpaceOnUse" x="0" y="0" width="187" height="52">
<path d="M186.696 0.539978H0V51.508H186.696V0.539978Z" fill="white"/>
</mask>
<g mask="url(#mask0_3_1237)">
<path d="M31.881 28.95C30.8438 28.95 29.849 29.362 29.1155 30.0955C28.3821 30.8289 27.97 31.8237 27.97 32.861V33.615C27.9436 36.2693 26.8706 38.8058 24.9843 40.6734C23.0981 42.541 20.5509 43.5886 17.8965 43.5886C15.2421 43.5886 12.695 42.541 10.8087 40.6734C8.92242 38.8058 7.84946 36.2693 7.82301 33.615V20.131C7.83131 19.612 7.73627 19.0967 7.54342 18.6148C7.35057 18.133 7.06378 17.6943 6.69974 17.3244C6.3357 16.9545 5.90169 16.6608 5.423 16.4602C4.94431 16.2597 4.43051 16.1564 3.91151 16.1564C3.39252 16.1564 2.87871 16.2597 2.40002 16.4602C1.92133 16.6608 1.48732 16.9545 1.12329 17.3244C0.759246 17.6943 0.47245 18.133 0.279604 18.6148C0.0867569 19.0967 -0.00828579 19.612 1.17563e-05 20.131V33.615C0.0989835 38.2958 2.02793 42.7515 5.3733 46.0269C8.71867 49.3023 13.2142 51.1366 17.896 51.1366C22.5779 51.1366 27.0734 49.3023 30.4187 46.0269C33.7641 42.7515 35.693 38.2958 35.792 33.615V32.864C35.792 31.8267 35.38 30.8319 34.6465 30.0985C33.9131 29.365 32.9183 28.953 31.881 28.953" fill="#60269E"/>
<path d="M31.881 0.990002H19.141C18.6221 0.981704 18.1067 1.07675 17.6248 1.26959C17.143 1.46244 16.7043 1.74924 16.3344 2.11328C15.9645 2.47731 15.6708 2.91132 15.4702 3.39001C15.2697 3.8687 15.1664 4.38251 15.1664 4.9015C15.1664 5.4205 15.2697 5.9343 15.4702 6.41299C15.6708 6.89168 15.9645 7.32569 16.3344 7.68973C16.7043 8.05377 17.143 8.34056 17.6248 8.53341C18.1067 8.72626 18.6221 8.8213 19.141 8.813H27.97V17.642C27.97 18.1556 28.0711 18.6642 28.2677 19.1387C28.4642 19.6132 28.7523 20.0443 29.1155 20.4075C29.4787 20.7707 29.9098 21.0587 30.3843 21.2553C30.8588 21.4518 31.3674 21.553 31.881 21.553C32.3946 21.553 32.9032 21.4518 33.3777 21.2553C33.8522 21.0587 34.2833 20.7707 34.6465 20.4075C35.0097 20.0443 35.2977 19.6132 35.4943 19.1387C35.6908 18.6642 35.792 18.1556 35.792 17.642V4.901C35.792 3.86374 35.3799 2.86896 34.6465 2.13551C33.913 1.40205 32.9182 0.990002 31.881 0.990002Z" fill="#60269E"/>
<path d="M7.81803 4.901C7.81783 4.12835 7.58855 3.37311 7.15916 2.73076C6.72978 2.08841 6.11958 1.5878 5.40571 1.29221C4.69184 0.996621 3.90636 0.919333 3.14857 1.07012C2.39078 1.2209 1.69471 1.59299 1.14836 2.13933C0.60202 2.68567 0.229935 3.38174 0.0791508 4.13953C-0.0716336 4.89732 0.00565377 5.68281 0.301241 6.39668C0.596829 7.11055 1.09744 7.72075 1.73979 8.15013C2.38214 8.57951 3.13738 8.8088 3.91003 8.809C4.9465 8.809 5.94051 8.39726 6.6734 7.66437C7.4063 6.93148 7.81803 5.93746 7.81803 4.901Z" fill="#FDD400"/>
<path d="M60.796 21.794C60.7933 22.7179 60.6194 23.6334 60.283 24.494C59.9338 25.3949 59.3871 26.2062 58.683 26.868C57.8707 27.6151 56.9155 28.1899 55.875 28.558C54.5341 29.0242 53.1202 29.2451 51.701 29.21C50.4657 29.2178 49.2316 29.1296 48.01 28.946C47.0022 28.7963 46.0066 28.5737 45.031 28.28C44.8675 28.2394 44.7143 28.1651 44.581 28.062C44.5179 28.0164 44.4668 27.9562 44.4319 27.8865C44.3971 27.8169 44.3796 27.7398 44.381 27.662V23.034C44.3813 22.8691 44.4296 22.7078 44.52 22.57C44.579 22.4943 44.66 22.4387 44.7519 22.4109C44.8438 22.3832 44.942 22.3846 45.033 22.415C45.364 22.456 45.798 22.503 46.333 22.554C46.868 22.605 47.454 22.662 48.085 22.725C48.716 22.788 49.348 22.838 49.979 22.88C50.61 22.922 51.184 22.942 51.7 22.942C51.8628 22.9622 52.0279 22.9492 52.1855 22.9039C52.3432 22.8585 52.4899 22.7816 52.617 22.678C52.7789 22.4818 52.8614 22.232 52.848 21.978C52.8478 21.8123 52.7874 21.6524 52.678 21.528C52.4711 21.3236 52.2352 21.1507 51.978 21.015L47.323 18.315C46.6511 17.9358 46.0355 17.4646 45.494 16.915C45.043 16.4534 44.6625 15.9277 44.365 15.355C44.0892 14.8169 43.8909 14.2426 43.776 13.649C43.6611 13.0508 43.6038 12.4431 43.605 11.834C43.6007 11.0112 43.7318 10.1932 43.993 9.41298C44.2565 8.64181 44.7163 7.95254 45.327 7.41298C46.0736 6.78114 46.9463 6.31579 47.887 6.04798C49.1981 5.67464 50.5582 5.50168 51.921 5.53498C52.583 5.53498 53.2867 5.56098 54.032 5.61298C54.7774 5.66498 55.496 5.73165 56.188 5.81298C56.8807 5.89498 57.5114 5.98765 58.08 6.09098C58.6487 6.19431 59.109 6.29798 59.461 6.40198C59.6204 6.44055 59.7689 6.51513 59.895 6.61998C59.9547 6.66789 60.0026 6.72887 60.0351 6.79822C60.0675 6.86757 60.0836 6.94344 60.082 7.01998V11.646C60.0863 11.812 60.0496 11.9766 59.975 12.125C59.902 12.26 59.73 12.307 59.462 12.264C59.0474 12.2226 58.5304 12.1763 57.911 12.125C57.2917 12.0736 56.633 12.023 55.935 11.973C55.2424 11.9216 54.544 11.88 53.84 11.848C53.136 11.816 52.495 11.801 51.917 11.803C51.8232 11.7897 51.7276 11.7966 51.6367 11.8233C51.5458 11.8501 51.4617 11.896 51.39 11.958C51.3095 12.053 51.2652 12.1734 51.265 12.298C51.2676 12.3737 51.2853 12.4482 51.3173 12.5169C51.3493 12.5856 51.3947 12.6472 51.451 12.698C51.7473 12.9316 52.0702 13.1293 52.413 13.287L56.819 15.614C58.051 16.2046 59.1014 17.1158 59.86 18.252C60.496 19.3203 60.8189 20.5459 60.792 21.789" fill="#60269E"/>
<path d="M77.675 28.357C77.5137 28.471 77.336 28.56 77.148 28.621C76.5753 28.8054 75.9892 28.9455 75.395 29.04C74.6308 29.1607 73.8577 29.2176 73.084 29.21C69.712 29.21 67.2087 28.3 65.574 26.48C63.9394 24.66 63.1237 22.0433 63.127 18.63V16.117C63.127 12.6823 63.9444 10.06 65.579 8.24996C67.2137 6.43996 69.717 5.53463 73.089 5.53396C73.8783 5.52871 74.6668 5.58589 75.447 5.70496C76.0264 5.78913 76.5961 5.9298 77.148 6.12496C77.3358 6.18645 77.5134 6.27542 77.675 6.38896C77.7236 6.44642 77.7598 6.5133 77.7813 6.5854C77.8028 6.65751 77.8092 6.73328 77.8 6.80796V11.708C77.8 12.1433 77.593 12.33 77.179 12.268C76.848 12.226 76.362 12.168 75.722 12.097C75.0729 12.0247 74.4202 11.9886 73.767 11.989C73.3236 11.9846 72.8812 12.0302 72.448 12.125C72.0544 12.2122 71.6969 12.4181 71.424 12.715C71.111 13.0762 70.8876 13.5062 70.772 13.97C70.5979 14.6705 70.5195 15.3914 70.539 16.113V18.626C70.5182 19.3723 70.5966 20.1182 70.772 20.844C70.8802 21.3096 71.11 21.7382 71.438 22.086C71.7205 22.3611 72.0758 22.5495 72.462 22.629C72.9013 22.7154 73.3483 22.7566 73.796 22.752C74.3304 22.7536 74.8644 22.7276 75.396 22.674C75.9027 22.6226 76.4974 22.556 77.18 22.474C77.26 22.4481 77.3446 22.4403 77.428 22.451C77.5113 22.4617 77.5912 22.4907 77.662 22.536C77.7176 22.6057 77.7586 22.6859 77.7825 22.7718C77.8064 22.8577 77.8127 22.9476 77.801 23.036V27.936C77.8103 28.0107 77.804 28.0865 77.7825 28.1586C77.761 28.2307 77.7247 28.2976 77.676 28.355" fill="#60269E"/>
<path d="M99.398 18.725C99.4469 20.4224 99.1678 22.1133 98.576 23.705C98.0995 24.9299 97.3514 26.0308 96.388 26.925C95.4842 27.7396 94.4076 28.3389 93.239 28.678C90.8167 29.381 88.2444 29.381 85.822 28.678C84.6541 28.3388 83.5782 27.7395 82.675 26.925C81.7099 26.0296 80.9616 24.926 80.487 23.698C79.8941 22.1066 79.6146 20.4155 79.664 18.718V16.025C79.6146 14.3274 79.8941 12.6364 80.487 11.045C80.9621 9.81637 81.7103 8.71187 82.675 7.81497C83.5789 7.00113 84.655 6.40219 85.823 6.06297C88.2451 5.358 90.8179 5.358 93.24 6.06297C94.4079 6.40239 95.4841 7.0013 96.388 7.81497C97.3512 8.7122 98.0989 9.81576 98.575 11.043C99.1668 12.6346 99.4459 14.3256 99.397 16.023L99.398 18.725ZM91.982 16.025C92.0675 14.9478 91.8696 13.867 91.408 12.89C91.1824 12.6092 90.8966 12.3826 90.5717 12.2269C90.2469 12.0712 89.8913 11.9904 89.531 11.9904C89.1708 11.9904 88.8152 12.0712 88.4903 12.2269C88.1655 12.3826 87.8797 12.6092 87.654 12.89C87.1901 13.8663 86.9904 14.9473 87.075 16.025V18.725C86.9889 19.8022 87.1868 20.8832 87.649 21.86C87.8747 22.1408 88.1605 22.3674 88.4853 22.523C88.8102 22.6787 89.1658 22.7596 89.526 22.7596C89.8863 22.7596 90.2419 22.6787 90.5667 22.523C90.8916 22.3674 91.1774 22.1408 91.403 21.86C91.8646 20.8829 92.0625 19.8022 91.977 18.725L91.982 16.025Z" fill="#60269E"/>
<path d="M115.811 28.651C115.685 28.7558 115.536 28.8301 115.376 28.868C114.755 28.9707 114.021 29.0537 113.176 29.117C112.331 29.1803 111.503 29.211 110.693 29.209C109.706 29.2078 108.721 29.1299 107.746 28.976C106.79 28.8347 105.874 28.4911 105.061 27.968C104.232 27.4135 103.559 26.6561 103.106 25.768C102.549 24.5756 102.288 23.2659 102.347 21.951V6.46399C102.347 6.3815 102.365 6.29999 102.399 6.22507C102.434 6.15014 102.484 6.08359 102.547 6.02999C102.667 5.91167 102.828 5.84493 102.997 5.84399H109.049C109.212 5.84805 109.368 5.91467 109.483 6.03008C109.598 6.14548 109.665 6.30084 109.669 6.46399V21.949C109.635 22.2309 109.713 22.5148 109.886 22.74C110.123 22.9007 110.409 22.9716 110.693 22.94H115.371C115.535 22.9438 115.69 23.0105 115.806 23.1261C115.922 23.2417 115.988 23.3975 115.992 23.561V28.245C115.994 28.3215 115.978 28.3973 115.946 28.4666C115.913 28.536 115.866 28.597 115.806 28.645" fill="#60269E"/>
<path d="M131.45 28.899C131.371 28.9003 131.293 28.8843 131.221 28.8522C131.149 28.8201 131.085 28.7725 131.033 28.713C130.919 28.5906 130.839 28.4407 130.8 28.278L130.239 24.804H125.524L124.966 28.278C124.927 28.4404 124.846 28.5902 124.733 28.713C124.681 28.7725 124.616 28.82 124.544 28.8522C124.472 28.8843 124.393 28.9003 124.314 28.899H117.86C117.78 28.9093 117.698 28.8975 117.624 28.8647C117.551 28.8319 117.487 28.7794 117.441 28.713C117.404 28.6474 117.381 28.5751 117.373 28.5003C117.365 28.4255 117.372 28.3499 117.394 28.278L121.087 9.53696C121.197 8.83578 121.462 8.16791 121.862 7.58196C122.234 7.06535 122.723 6.64501 123.29 6.35596C123.925 6.04064 124.606 5.82768 125.307 5.72496C127.015 5.47693 128.749 5.47693 130.457 5.72496C131.154 5.82787 131.829 6.04263 132.457 6.36096C133.017 6.65361 133.501 7.07352 133.869 7.58696C134.271 8.17561 134.546 8.84138 134.676 9.54196L138.369 28.283C138.39 28.355 138.397 28.4305 138.389 28.5052C138.381 28.5799 138.358 28.6522 138.322 28.718C138.276 28.7842 138.212 28.8364 138.138 28.8692C138.065 28.902 137.983 28.914 137.903 28.904L131.45 28.899ZM128.162 11.894C128.147 11.7936 128.121 11.6953 128.084 11.601C128.066 11.5644 128.037 11.5343 128.001 11.5146C127.966 11.495 127.925 11.4867 127.884 11.491C127.843 11.4856 127.802 11.4934 127.766 11.5132C127.73 11.533 127.701 11.5637 127.684 11.601C127.645 11.6948 127.619 11.7933 127.606 11.894L126.458 19.094H129.313L128.162 11.894Z" fill="#60269E"/>
<path d="M157.438 28.155C157.271 28.2513 157.086 28.3145 156.895 28.341C155.943 28.5476 154.836 28.744 153.574 28.93C152.216 29.1239 150.846 29.2175 149.474 29.21C148.768 29.2071 148.064 29.1553 147.365 29.055C146.61 28.9494 145.872 28.7516 145.165 28.466C144.42 28.1659 143.714 27.775 143.065 27.302C142.359 26.7809 141.754 26.1345 141.281 25.395C140.727 24.524 140.313 23.5709 140.056 22.571C139.734 21.3034 139.583 19.9986 139.605 18.691V16.054C139.528 14.1755 139.872 12.3036 140.614 10.576C141.144 9.38907 141.95 8.34601 142.965 7.53368C143.98 6.72136 145.174 6.16329 146.448 5.90597C147.544 5.66842 148.662 5.54377 149.783 5.53397C151.223 5.51503 152.662 5.62379 154.083 5.85897C155.03 6.02121 155.967 6.23384 156.891 6.49597C157.094 6.5447 157.284 6.63455 157.451 6.75997C157.526 6.88605 157.558 7.03303 157.543 7.17897V11.74C157.557 11.9054 157.525 12.0713 157.451 12.22C157.388 12.314 157.243 12.34 157.016 12.298C156.789 12.277 156.462 12.247 156.039 12.206C155.616 12.165 155.148 12.128 154.639 12.098C154.13 12.068 153.603 12.041 153.056 12.02C152.509 11.999 151.996 11.988 151.52 11.988C150.809 11.9779 150.098 12.0298 149.395 12.143C148.89 12.2174 148.413 12.4244 148.014 12.743C147.644 13.0734 147.38 13.5054 147.254 13.985C147.082 14.659 147.003 15.3535 147.021 16.049V18.749C146.998 19.5488 147.084 20.3481 147.276 21.125C147.385 21.5855 147.598 22.0153 147.897 22.382C148.104 22.6283 148.388 22.798 148.703 22.864C148.959 22.9123 149.219 22.9384 149.479 22.942C149.624 22.942 149.794 22.936 149.992 22.926C150.165 22.9197 150.336 22.8935 150.503 22.848V17.263C150.507 17.0995 150.573 16.9437 150.689 16.8281C150.805 16.7124 150.961 16.6458 151.124 16.642H156.924C157.087 16.646 157.243 16.7128 157.358 16.8284C157.474 16.944 157.54 17.0996 157.544 17.263V27.663C157.544 27.933 157.509 28.098 157.436 28.163" fill="#60269E"/>
<path d="M175.819 28.666C175.699 28.7772 175.547 28.8473 175.384 28.866C174.744 28.948 173.886 29.0257 172.809 29.099C171.732 29.1723 170.512 29.2083 169.147 29.207C168.16 29.2058 167.175 29.1279 166.2 28.974C165.243 28.833 164.328 28.489 163.515 27.965C162.686 27.4112 162.012 26.6537 161.56 25.765C161.002 24.5728 160.741 23.263 160.8 21.948V12.795C160.741 11.48 161.002 10.1703 161.56 8.97799C162.013 8.08986 162.686 7.3325 163.515 6.77799C164.328 6.25429 165.243 5.91059 166.2 5.76999C167.175 5.61603 168.16 5.53813 169.147 5.53699C170.512 5.53699 171.733 5.57299 172.809 5.64499C173.885 5.71699 174.743 5.79465 175.384 5.87799C175.546 5.89721 175.699 5.9672 175.819 6.07799C175.879 6.13041 175.926 6.1951 175.958 6.2676C175.99 6.3401 176.006 6.4187 176.005 6.49799V11.181C176.001 11.3445 175.935 11.5002 175.819 11.6159C175.703 11.7315 175.548 11.7982 175.384 11.802H169.147C168.863 11.7704 168.577 11.8413 168.34 12.002C168.167 12.2272 168.089 12.5111 168.123 12.793V14.469H175.384C175.548 14.4728 175.703 14.5395 175.819 14.6551C175.935 14.7707 176.001 14.9265 176.005 15.09V19.465C176.001 19.6283 175.934 19.7838 175.818 19.8993C175.703 20.0149 175.547 20.0817 175.384 20.086H168.123V21.946C168.089 22.2282 168.167 22.5125 168.34 22.738C168.577 22.8987 168.863 22.9696 169.147 22.938H175.384C175.547 22.9418 175.703 23.0083 175.819 23.1237C175.934 23.2392 176.001 23.3947 176.005 23.558V28.244C176.006 28.3232 175.991 28.4017 175.958 28.4741C175.926 28.5465 175.879 28.6109 175.819 28.663" fill="#60269E"/>
<path d="M77.928 46.635C77.928 46.805 77.837 46.89 77.657 46.89H75.422C75.3838 46.8914 75.3457 46.8852 75.31 46.8716C75.2743 46.858 75.2416 46.8374 75.214 46.811C75.1588 46.753 75.1204 46.6811 75.103 46.603L74.528 43.983H71.253L70.679 46.602C70.6604 46.6801 70.6214 46.7518 70.566 46.81C70.5385 46.8365 70.5059 46.8572 70.4701 46.8708C70.4344 46.8844 70.3962 46.8905 70.358 46.889H68.123C67.941 46.889 67.852 46.804 67.852 46.634C67.8516 46.6229 67.854 46.6119 67.859 46.602C67.8644 46.5866 67.8668 46.5703 67.866 46.554L70.246 36.654C70.3202 36.3204 70.4614 36.0053 70.661 35.728C70.8294 35.5053 71.0449 35.3226 71.292 35.193C71.5353 35.069 71.797 34.9852 72.067 34.945C72.342 34.9025 72.6198 34.8811 72.898 34.881C73.1736 34.881 73.4488 34.9024 73.721 34.945C73.988 34.9859 74.2467 35.0697 74.487 35.193C74.7345 35.3222 74.9501 35.505 75.118 35.728C75.3182 36.005 75.4595 36.3202 75.533 36.654L77.913 46.554C77.912 46.5705 77.9151 46.587 77.922 46.602C77.9264 46.6121 77.9288 46.623 77.929 46.634M73.106 37.386C73.0926 37.3225 73.0711 37.261 73.042 37.203C73.021 37.165 72.973 37.147 72.898 37.147C72.781 37.147 72.706 37.226 72.674 37.386L71.7 41.795H74.08L73.106 37.386Z" fill="#60269E"/>
<path d="M93.931 43.455C93.9533 44.0623 93.8154 44.6648 93.531 45.2019C93.2735 45.6562 92.902 46.0353 92.453 46.302C91.9595 46.5886 91.4169 46.7808 90.853 46.8689C90.2065 46.9786 89.5518 47.0321 88.896 47.029C88.631 47.029 88.358 47.023 88.082 47.0129C87.806 47.0029 87.536 46.9899 87.275 46.9729C87.014 46.9559 86.775 46.9379 86.548 46.9169C86.321 46.8959 86.133 46.869 85.974 46.836C85.7228 46.8141 85.4849 46.7137 85.294 46.5489C85.1367 46.332 85.0654 46.0644 85.094 45.7979V36.088C85.0669 35.8228 85.1349 35.5566 85.286 35.337C85.4678 35.1734 85.6975 35.0727 85.941 35.05C86.079 35.028 86.257 35.008 86.476 34.986C86.695 34.964 86.934 34.946 87.195 34.93C87.456 34.914 87.724 34.901 88.002 34.89C88.28 34.879 88.545 34.8739 88.802 34.8739C89.4927 34.8681 90.1824 34.9243 90.863 35.042C91.4203 35.132 91.9577 35.3185 92.451 35.593C92.8799 35.8352 93.236 36.1882 93.482 36.615C93.7434 37.1066 93.8703 37.6585 93.85 38.215V38.502C93.8575 38.9933 93.7361 39.4781 93.498 39.908C93.2714 40.3152 92.9261 40.6438 92.508 40.85C92.9468 41.0661 93.3141 41.4039 93.5661 41.823C93.818 42.2422 93.944 42.7251 93.929 43.214L93.931 43.455ZM91.215 38.3909C91.2278 38.201 91.1895 38.0112 91.104 37.8411C91.0185 37.671 90.8891 37.527 90.729 37.424C90.1933 37.1733 89.6016 37.0661 89.012 37.113H88.4C88.277 37.113 88.16 37.113 88.048 37.12C87.936 37.127 87.853 37.127 87.8 37.127V39.891H89.588C89.8553 39.8992 90.1222 39.8655 90.379 39.791C90.5628 39.7366 90.7332 39.6443 90.879 39.5199C90.9989 39.4107 91.0897 39.2732 91.143 39.12C91.1963 38.9628 91.223 38.7979 91.222 38.632L91.215 38.3909ZM91.279 43.214C91.2856 42.8463 91.1544 42.4896 90.911 42.214C90.7325 42.0535 90.5221 41.9327 90.2935 41.8595C90.065 41.7862 89.8235 41.7622 89.585 41.789H87.8V44.7769H88.08C88.202 44.7769 88.329 44.7769 88.462 44.7839C88.595 44.7909 88.723 44.7909 88.846 44.7909H89.11C89.7009 44.847 90.2946 44.7192 90.81 44.425C90.9661 44.3024 91.0904 44.1441 91.1725 43.9635C91.2547 43.7828 91.2922 43.5851 91.282 43.387L91.279 43.214Z" fill="#60269E"/>
<path d="M104.17 42.7349C104.17 42.9909 104.059 43.1189 103.835 43.1189H98.74V43.1509C98.7389 43.3697 98.7655 43.5878 98.819 43.7999C98.8677 44.0022 98.9602 44.1914 99.09 44.3539C99.2252 44.5172 99.3963 44.6469 99.59 44.7329C99.8406 44.836 100.11 44.8844 100.381 44.8749C100.636 44.8749 100.907 44.8749 101.195 44.8599L102.049 44.8279C102.332 44.8179 102.595 44.8029 102.84 44.7879C103.085 44.7729 103.287 44.7529 103.446 44.7309H103.494C103.694 44.7309 103.794 44.8169 103.794 44.9869V46.2119C103.801 46.3124 103.778 46.4126 103.73 46.5009C103.661 46.5809 103.564 46.6325 103.459 46.6459C102.965 46.7715 102.464 46.8683 101.959 46.9359C101.371 47.0071 100.779 47.0405 100.187 47.0359C99.7003 47.0344 99.2162 46.9643 98.749 46.8279C98.2747 46.692 97.8342 46.4579 97.456 46.1409C97.0531 45.7951 96.7361 45.3603 96.53 44.8709C96.2787 44.2555 96.1588 43.5944 96.178 42.9299V41.8089C96.1708 41.2172 96.2624 40.6285 96.449 40.0669C96.6139 39.573 96.8837 39.1207 97.24 38.7409C97.5988 38.3705 98.0348 38.0837 98.517 37.9009C99.0623 37.6939 99.6418 37.5921 100.225 37.6009C100.813 37.5893 101.398 37.6979 101.943 37.9199C102.416 38.1176 102.839 38.4178 103.181 38.7989C103.518 39.1845 103.771 39.6361 103.924 40.1249C104.093 40.6676 104.177 41.2334 104.172 41.8019L104.17 42.7349ZM101.646 41.4579C101.683 40.9818 101.547 40.5084 101.262 40.1249C101.13 39.9778 100.967 39.8621 100.785 39.7861C100.603 39.7101 100.406 39.6759 100.209 39.6859C100.009 39.6773 99.8088 39.7128 99.6237 39.7901C99.4386 39.8673 99.2728 39.9844 99.138 40.1329C98.8455 40.5104 98.703 40.9827 98.738 41.4589V41.5229H101.644L101.646 41.4579Z" fill="#60269E"/>
<path d="M111.39 46.9049C111.145 46.9469 110.932 46.9779 110.751 47.0049C110.544 47.0268 110.336 47.0372 110.128 47.0359C109.741 47.0415 109.355 47.0079 108.975 46.9359C108.666 46.878 108.378 46.7365 108.143 46.5269C107.903 46.2974 107.727 46.0083 107.635 45.6889C107.506 45.2403 107.447 44.7745 107.461 44.3079V39.6699L106.183 39.4619C106.098 39.4407 106.018 39.3996 105.952 39.3419C105.92 39.3159 105.895 39.2831 105.877 39.2459C105.86 39.2086 105.851 39.168 105.852 39.1269V38.0719C105.857 37.9848 105.894 37.9026 105.956 37.8409C106.018 37.7791 106.1 37.7422 106.187 37.7369H107.466V36.4269C107.465 36.3869 107.474 36.3472 107.491 36.3111C107.509 36.275 107.534 36.2435 107.566 36.2189C107.63 36.1657 107.706 36.1278 107.787 36.1079L109.723 35.7729H109.771C109.847 35.7692 109.921 35.7951 109.978 35.8449C110.005 35.8705 110.026 35.9017 110.04 35.9362C110.053 35.9708 110.059 36.0079 110.057 36.0449V37.7379H111.366C111.408 37.7384 111.45 37.7475 111.488 37.7647C111.527 37.7819 111.562 37.8068 111.59 37.8379C111.621 37.8669 111.646 37.9019 111.663 37.9407C111.68 37.9795 111.689 38.0215 111.69 38.0639V39.3689C111.69 39.4114 111.68 39.4534 111.663 39.4922C111.646 39.5311 111.621 39.566 111.59 39.5949C111.562 39.6261 111.527 39.6511 111.488 39.6684C111.45 39.6856 111.408 39.6946 111.366 39.6949H110.048V44.3439C110.03 44.5521 110.058 44.7616 110.129 44.9579C110.182 45.0489 110.329 45.0939 110.576 45.0939H111.358C111.582 45.0939 111.693 45.1849 111.693 45.3639V46.5889C111.693 46.7689 111.593 46.8743 111.393 46.9049" fill="#60269E"/>
<path d="M118.912 46.9049C118.666 46.9469 118.452 46.9779 118.272 47.0049C118.066 47.0268 117.858 47.0371 117.651 47.0359C117.264 47.0415 116.877 47.008 116.497 46.9359C116.188 46.8747 115.902 46.7305 115.669 46.5189C115.429 46.2891 115.254 46 115.161 45.6809C115.032 45.2324 114.973 44.7665 114.987 44.2999V39.6699L113.71 39.4619C113.624 39.4408 113.544 39.3997 113.477 39.3419C113.446 39.3157 113.42 39.2828 113.403 39.2456C113.386 39.2085 113.377 39.1679 113.377 39.1269V38.0719C113.382 37.9845 113.42 37.902 113.482 37.8402C113.544 37.7784 113.627 37.7417 113.714 37.7369H114.991V36.4269C114.99 36.3869 114.999 36.3472 115.016 36.3111C115.034 36.275 115.059 36.2435 115.091 36.2189C115.156 36.166 115.231 36.1281 115.312 36.1079L117.248 35.7729H117.298C117.374 35.77 117.448 35.7957 117.505 35.8449C117.532 35.8707 117.552 35.9019 117.566 35.9364C117.58 35.9709 117.586 36.0079 117.584 36.0449V37.7379H118.892C118.934 37.7382 118.976 37.7472 119.015 37.7644C119.053 37.7816 119.088 37.8067 119.116 37.8379C119.147 37.867 119.172 37.902 119.189 37.9408C119.206 37.9796 119.215 38.0215 119.216 38.0639V39.3689C119.216 39.4114 119.206 39.4533 119.189 39.4922C119.172 39.531 119.147 39.566 119.116 39.5949C119.088 39.6264 119.053 39.6516 119.015 39.6689C118.976 39.6861 118.934 39.695 118.892 39.6949H117.569V44.3439C117.55 44.5521 117.578 44.7618 117.65 44.9579C117.701 45.0489 117.85 45.0939 118.095 45.0939H118.877C119.101 45.0939 119.212 45.1849 119.212 45.3639V46.5889C119.212 46.7689 119.112 46.8749 118.912 46.9049Z" fill="#60269E"/>
<path d="M129.229 42.735C129.229 42.991 129.116 43.119 128.892 43.119H123.799V43.151C123.797 43.3699 123.824 43.588 123.878 43.8C123.926 44.0023 124.018 44.1914 124.148 44.354C124.284 44.5181 124.457 44.6479 124.653 44.733C124.904 44.8362 125.173 44.8846 125.444 44.875C125.697 44.875 125.968 44.875 126.258 44.86L127.112 44.828C127.393 44.818 127.657 44.803 127.901 44.788C128.145 44.773 128.348 44.753 128.507 44.731H128.557C128.757 44.731 128.857 44.817 128.857 44.987V46.212C128.864 46.3125 128.841 46.4127 128.793 46.501C128.724 46.5809 128.627 46.6325 128.522 46.646C128.028 46.7716 127.527 46.8684 127.022 46.936C126.434 47.0072 125.842 47.0406 125.25 47.036C124.763 47.0343 124.279 46.9643 123.812 46.828C123.338 46.6917 122.897 46.4577 122.519 46.141C122.116 45.7952 121.799 45.3604 121.593 44.871C121.342 44.2556 121.222 43.5945 121.241 42.93V41.809C121.234 41.2173 121.325 40.6286 121.512 40.067C121.677 39.5731 121.947 39.1207 122.303 38.741C122.66 38.3718 123.094 38.0857 123.574 37.903C124.119 37.6956 124.699 37.5938 125.282 37.603C125.87 37.5913 126.454 37.6999 126.999 37.922C127.472 38.1197 127.895 38.4199 128.237 38.801C128.574 39.1866 128.827 39.6382 128.98 40.127C129.15 40.6697 129.234 41.2355 129.229 41.804V42.735ZM126.705 41.458C126.741 40.982 126.605 40.5088 126.321 40.125C126.189 39.978 126.026 39.8623 125.843 39.7864C125.661 39.7104 125.463 39.6761 125.266 39.686C125.066 39.6773 124.866 39.7129 124.681 39.7901C124.496 39.8674 124.33 39.9845 124.195 40.133C123.902 40.5104 123.76 40.9828 123.795 41.459V41.523H126.701L126.705 41.458Z" fill="#60269E"/>
<path d="M136.656 39.667C136.638 39.6978 136.613 39.7233 136.582 39.7409C136.551 39.7585 136.516 39.7675 136.48 39.767H136.353C135.98 39.7639 135.609 39.8179 135.253 39.927C134.921 40.0294 134.6 40.1633 134.294 40.327V46.558C134.292 46.6451 134.256 46.7279 134.194 46.789C134.166 46.8205 134.131 46.8457 134.093 46.8629C134.054 46.8802 134.012 46.8891 133.97 46.889H132.04C131.953 46.8838 131.871 46.8468 131.809 46.7851C131.747 46.7234 131.71 46.6411 131.705 46.554V38.054C131.705 38.0119 131.714 37.9703 131.731 37.9319C131.749 37.8934 131.774 37.8591 131.805 37.831C131.833 37.7997 131.868 37.7747 131.907 37.7575C131.945 37.7403 131.987 37.7313 132.029 37.731H133.929C134.013 37.7333 134.094 37.7681 134.153 37.828C134.213 37.888 134.247 37.9686 134.248 38.053V38.375C134.55 38.127 134.894 37.9337 135.263 37.804C135.63 37.6727 136.016 37.6051 136.405 37.604C136.489 37.607 136.569 37.642 136.628 37.7018C136.688 37.7617 136.722 37.8418 136.724 37.926V39.454C136.724 39.5285 136.702 39.6013 136.66 39.663" fill="#60269E"/>
<path d="M156.747 35.26L155.26 45.721C155.253 45.9041 155.208 46.0838 155.129 46.2488C155.049 46.4139 154.936 46.5607 154.797 46.68C154.495 46.865 154.144 46.9539 153.791 46.935H152.88C152.558 46.9432 152.239 46.86 151.962 46.695C151.674 46.496 151.476 46.1918 151.411 45.848L150.15 41.073C150.14 41.0319 150.121 40.9938 150.093 40.962C150.066 40.9492 150.035 40.9436 150.005 40.946C149.978 40.9425 149.95 40.9481 149.926 40.962C149.905 40.9966 149.889 41.0339 149.878 41.073L148.617 45.848C148.552 46.1918 148.354 46.496 148.066 46.695C147.789 46.8596 147.47 46.9428 147.148 46.935H146.237C145.884 46.9543 145.533 46.8654 145.231 46.68C145.092 46.5607 144.979 46.4139 144.899 46.2488C144.82 46.0838 144.775 45.9041 144.768 45.721L143.283 35.26V35.228C143.278 35.1955 143.283 35.1624 143.298 35.1327C143.312 35.103 143.334 35.0781 143.362 35.061C143.417 35.0341 143.477 35.0201 143.538 35.02H145.71C145.859 35.02 145.944 35.12 145.966 35.32L146.876 43.88C146.886 44.019 146.918 44.088 146.976 44.088C147.034 44.088 147.055 44.019 147.087 43.88L148.237 39.489C148.259 39.365 148.306 39.2468 148.375 39.1412C148.444 39.0356 148.533 38.9447 148.637 38.874C148.817 38.7728 149.02 38.7204 149.227 38.722H150.809C151.016 38.7208 151.219 38.7731 151.399 38.874C151.503 38.9447 151.592 39.0356 151.661 39.1412C151.73 39.2468 151.777 39.365 151.799 39.489L152.949 43.88C152.981 44.019 153.018 44.088 153.06 44.088C153.102 44.088 153.145 44.019 153.16 43.88L154.071 35.32C154.093 35.12 154.178 35.02 154.327 35.02H156.499C156.56 35.0201 156.62 35.0341 156.675 35.061C156.703 35.0781 156.726 35.103 156.74 35.1327C156.754 35.1624 156.759 35.1955 156.754 35.228L156.747 35.26Z" fill="#60269E"/>
<path d="M165.516 46.569C165.514 46.6529 165.479 46.7327 165.42 46.792C165.361 46.8514 165.281 46.8857 165.197 46.888H163.409C163.367 46.8877 163.325 46.8787 163.286 46.8615C163.248 46.8443 163.213 46.8192 163.185 46.788C163.154 46.7599 163.128 46.7255 163.111 46.6871C163.094 46.6487 163.085 46.6071 163.085 46.565V46.309C162.784 46.5292 162.454 46.7066 162.104 46.836C161.706 46.9721 161.287 47.0371 160.866 47.028C160.523 47.0292 160.182 46.9834 159.851 46.892C159.52 46.8042 159.214 46.6412 158.956 46.4157C158.699 46.1902 158.497 45.9083 158.366 45.592C158.2 45.1761 158.121 44.7305 158.135 44.283V44.141C158.103 43.7477 158.173 43.353 158.336 42.9939C158.5 42.6349 158.752 42.3234 159.069 42.089C159.985 41.5859 161.027 41.3611 162.069 41.442H162.93V40.868C162.93 40.41 162.825 40.112 162.611 39.973C162.344 39.8206 162.039 39.7484 161.732 39.765C161.477 39.765 161.22 39.768 160.959 39.774C160.698 39.78 160.448 39.787 160.208 39.797C159.968 39.807 159.752 39.82 159.562 39.838C159.372 39.856 159.21 39.867 159.082 39.878H159.003C158.928 39.8811 158.855 39.8585 158.795 39.814C158.766 39.785 158.744 39.7498 158.73 39.711C158.716 39.6722 158.711 39.6308 158.716 39.59V38.295C158.714 38.2098 158.744 38.127 158.799 38.0621C158.855 37.9973 158.932 37.9549 159.016 37.943C159.316 37.87 159.716 37.794 160.221 37.72C160.737 37.6442 161.257 37.6065 161.778 37.607C162.303 37.601 162.826 37.6632 163.335 37.792C163.764 37.8961 164.164 38.092 164.51 38.366C164.836 38.6356 165.091 38.981 165.253 39.372C165.441 39.8471 165.531 40.3553 165.517 40.866L165.516 46.569ZM162.976 42.975H162.066C161.835 42.9704 161.604 42.9946 161.379 43.047C161.22 43.0838 161.072 43.1575 160.947 43.262C160.839 43.3611 160.762 43.4887 160.724 43.63C160.679 43.7965 160.658 43.9685 160.66 44.141V44.285C160.66 44.6263 160.743 44.8446 160.908 44.94C161.145 45.0518 161.406 45.1017 161.667 45.085C161.902 45.0873 162.136 45.0536 162.361 44.985C162.572 44.9177 162.777 44.8348 162.976 44.737V42.975Z" fill="#60269E"/>
<path d="M176.009 38.024C176.009 38.046 176.006 38.0594 176 38.064C175.994 38.0764 175.992 38.0903 175.993 38.104L173.31 47.512C173.199 47.9043 173.055 48.2863 172.879 48.654C172.73 48.9636 172.517 49.2383 172.255 49.46C171.969 49.6899 171.637 49.8562 171.281 49.948C170.801 50.0697 170.307 50.1258 169.812 50.115C169.663 50.115 169.499 50.108 169.312 50.092C169.125 50.076 168.95 50.057 168.769 50.036C168.588 50.015 168.417 49.988 168.258 49.957C168.129 49.9315 168.001 49.8981 167.876 49.857C167.796 49.8285 167.719 49.7951 167.643 49.757C167.61 49.7395 167.584 49.7129 167.566 49.6804C167.548 49.6479 167.54 49.6109 167.543 49.574V48.277C167.543 48.236 167.552 48.1955 167.569 48.1583C167.586 48.1212 167.612 48.0883 167.643 48.062C167.704 48.0049 167.784 47.9734 167.867 47.974H167.899C168.026 47.986 168.177 47.996 168.353 48.006C168.529 48.016 168.71 48.029 168.896 48.047C169.082 48.065 169.264 48.075 169.439 48.087C169.614 48.099 169.766 48.102 169.893 48.102C170.13 48.1165 170.365 48.0556 170.565 47.928C170.758 47.7554 170.892 47.5262 170.947 47.273L171.091 46.773H170.852C170.71 46.7742 170.568 46.7608 170.429 46.733C170.287 46.7022 170.153 46.6396 170.038 46.55C169.89 46.4292 169.767 46.2799 169.678 46.111C169.542 45.8505 169.437 45.5745 169.367 45.289L167.261 38.103C167.25 38.0671 167.244 38.0296 167.245 37.992C167.245 37.822 167.352 37.737 167.566 37.737H169.69C169.728 37.735 169.766 37.7419 169.801 37.7572C169.835 37.7724 169.866 37.7957 169.89 37.825C169.939 37.8885 169.973 37.9619 169.99 38.04L171.427 44.045C171.469 44.245 171.534 44.345 171.619 44.345H171.763L173.248 38.036C173.268 37.9548 173.309 37.8805 173.368 37.821C173.396 37.7923 173.43 37.7696 173.467 37.7545C173.505 37.7393 173.545 37.732 173.585 37.733H175.709C175.788 37.7309 175.865 37.7592 175.924 37.812C175.953 37.8383 175.976 37.8705 175.991 37.9064C176.006 37.9423 176.013 37.981 176.012 38.02" fill="#60269E"/>
<path d="M60.796 43.743H45.412C45.0919 43.743 44.7849 43.6158 44.5585 43.3895C44.3322 43.1631 44.205 42.8561 44.205 42.536C44.205 42.2159 44.3322 41.9089 44.5585 41.6825C44.7849 41.4561 45.0919 41.329 45.412 41.329H60.796C61.1161 41.329 61.4231 41.4561 61.6495 41.6825C61.8759 41.9089 62.003 42.2159 62.003 42.536C62.003 42.8561 61.8759 43.1631 61.6495 43.3895C61.4231 43.6158 61.1161 43.743 60.796 43.743Z" fill="#60269E"/>
<path d="M181.553 1.07896H180.193V5.58696C180.194 5.6235 180.182 5.65918 180.158 5.68696C180.147 5.70037 180.133 5.71112 180.117 5.71839C180.102 5.72566 180.084 5.72928 180.067 5.72896H179.683C179.666 5.72928 179.648 5.72566 179.633 5.71839C179.617 5.71112 179.603 5.70037 179.592 5.68696C179.568 5.65918 179.556 5.6235 179.557 5.58696V1.07896H178.193C178.158 1.08049 178.123 1.07068 178.093 1.05096C178.079 1.04226 178.068 1.03008 178.061 1.01566C178.053 1.00125 178.05 0.985125 178.051 0.968956V0.668956C178.051 0.651879 178.054 0.634945 178.061 0.619497C178.069 0.604049 178.08 0.590511 178.093 0.579956C178.12 0.55473 178.156 0.540787 178.193 0.540956H181.55C181.638 0.540956 181.682 0.582956 181.682 0.665956V0.965956C181.682 1.03929 181.638 1.07596 181.55 1.07596" fill="#60269E"/>
<path d="M186.653 5.68399C186.64 5.69762 186.625 5.70841 186.607 5.71564C186.59 5.72288 186.572 5.7264 186.553 5.72599H186.215C186.178 5.7247 186.143 5.70935 186.118 5.6831C186.092 5.65685 186.077 5.62171 186.077 5.58499V1.44799C186.077 1.43499 186.077 1.42699 186.071 1.42699C186.065 1.42699 186.061 1.42699 186.056 1.43999L185.056 3.50699C185.027 3.5652 184.987 3.61692 184.937 3.65899C184.878 3.69761 184.807 3.71522 184.737 3.70899H184.415C184.346 3.71471 184.278 3.6971 184.22 3.65899C184.17 3.61698 184.129 3.56526 184.1 3.50699L183.1 1.43999C183.1 1.43099 183.09 1.42699 183.085 1.42699C183.08 1.42699 183.078 1.43399 183.078 1.44799V5.58599C183.078 5.62271 183.063 5.65785 183.037 5.6841C183.012 5.71035 182.977 5.7257 182.94 5.72699H182.602C182.583 5.7274 182.565 5.72388 182.548 5.71664C182.53 5.70941 182.515 5.69862 182.502 5.68499C182.489 5.6719 182.478 5.65631 182.471 5.63913C182.464 5.62196 182.461 5.60355 182.461 5.58499V0.740986C182.461 0.687943 182.482 0.637072 182.52 0.599565C182.557 0.562057 182.608 0.540986 182.661 0.540986H183.109C183.158 0.537321 183.208 0.545909 183.253 0.565986C183.289 0.587939 183.318 0.620858 183.334 0.659986L184.488 3.05299C184.511 3.10399 184.539 3.12899 184.571 3.12899C184.603 3.12899 184.631 3.10399 184.656 3.05299L185.821 0.659986C185.838 0.621209 185.866 0.588445 185.902 0.565986C185.947 0.546072 185.996 0.537487 186.045 0.540986H186.495C186.548 0.540986 186.599 0.562057 186.636 0.599565C186.674 0.637072 186.695 0.687943 186.695 0.740986V5.58599C186.696 5.6046 186.692 5.62311 186.685 5.64034C186.678 5.65756 186.667 5.67312 186.654 5.68599" fill="#60269E"/>
</g>
</svg>
