<svg width="20" height="20" viewBox="0 0 20 20" fill="none" xmlns="http://www.w3.org/2000/svg">
<path d="M6.24402 20C2.39202 20 0 17.608 0 13.753C0 13.5501 0.0806558 13.3555 0.224121 13.2121C0.367586 13.0686 0.562124 12.988 0.765015 12.988C0.967905 12.988 1.16244 13.0686 1.30591 13.2121C1.44937 13.3555 1.53003 13.5501 1.53003 13.753C1.53003 16.787 3.20105 18.467 6.25305 18.467H13.745C16.789 18.467 18.468 16.796 18.468 13.753V6.253C18.468 3.21 16.798 1.53 13.745 1.53H6.25305C3.21005 1.53 1.53003 3.21 1.53003 6.253V8.584C1.53003 8.7845 1.45037 8.9768 1.30859 9.11857C1.16682 9.26035 0.974551 9.34 0.774048 9.34H0.762939C0.560579 9.34 0.366601 9.25961 0.223511 9.11652C0.0804205 8.97343 0 8.77936 0 8.577V6.253C0 2.393 2.41003 0 6.25403 0H13.746C17.608 0 20 2.393 20 6.256V13.756C20 17.608 17.6079 20 13.7469 20H6.24402ZM13.281 10C13.281 9.76266 13.3514 9.53066 13.4833 9.33332C13.6151 9.13598 13.8025 8.98217 14.0217 8.89135C14.241 8.80052 14.4823 8.77676 14.7151 8.82306C14.9479 8.86936 15.1616 8.98365 15.3295 9.15147C15.4973 9.31929 15.6117 9.53311 15.658 9.76589C15.7043 9.99867 15.6804 10.2399 15.5896 10.4592C15.4988 10.6785 15.345 10.8659 15.1477 10.9978C14.9504 11.1296 14.7183 11.2 14.481 11.2C14.1627 11.2 13.8575 11.0736 13.6324 10.8485C13.4074 10.6235 13.281 10.3183 13.281 10ZM8.80005 10C8.80005 9.76266 8.87034 9.53066 9.0022 9.33332C9.13406 9.13598 9.3215 8.98217 9.54077 8.89135C9.76004 8.80052 10.0014 8.77676 10.2341 8.82306C10.4669 8.86936 10.6807 8.98365 10.8485 9.15147C11.0163 9.31929 11.1307 9.53311 11.177 9.76589C11.2233 9.99867 11.1995 10.2399 11.1086 10.4592C11.0178 10.6785 10.864 10.8659 10.6666 10.9978C10.4693 11.1296 10.2373 11.2 10 11.2C9.68174 11.2 9.37653 11.0736 9.15149 10.8485C8.92645 10.6235 8.80005 10.3183 8.80005 10ZM4.323 10C4.323 9.76266 4.39341 9.53066 4.52527 9.33332C4.65713 9.13598 4.84445 8.98217 5.06372 8.89135C5.28299 8.80052 5.5243 8.77676 5.75708 8.82306C5.98986 8.86936 6.20376 8.98365 6.37158 9.15147C6.5394 9.31929 6.65365 9.53311 6.69995 9.76589C6.74625 9.99867 6.72254 10.2399 6.63171 10.4592C6.54089 10.6785 6.38704 10.8659 6.1897 10.9978C5.99236 11.1296 5.76029 11.2 5.52295 11.2C5.20469 11.2 4.89948 11.0736 4.67444 10.8485C4.44939 10.6235 4.323 10.3183 4.323 10Z" fill="#7A86A1"/>
</svg>
