<svg width="17" height="21" viewBox="0 0 17 21" fill="none" xmlns="http://www.w3.org/2000/svg">
<path d="M5.69203 18.954C5.62885 18.8795 5.58125 18.7931 5.55202 18.6999C5.52279 18.6067 5.51255 18.5086 5.52187 18.4114C5.53119 18.3141 5.55981 18.2198 5.60622 18.1338C5.65263 18.0479 5.71583 17.9721 5.79201 17.911C5.94938 17.785 6.14953 17.725 6.35024 17.7437C6.55095 17.7623 6.7366 17.8582 6.86806 18.011C6.9874 18.1634 7.12779 18.2981 7.28505 18.411C7.70834 18.7185 8.23484 18.8488 8.7527 18.7741C9.27057 18.6994 9.73889 18.4256 10.058 18.011H10.067C10.1987 17.8581 10.3845 17.7623 10.5853 17.7436C10.7862 17.7249 10.9865 17.785 11.1441 17.911C11.2204 17.9717 11.2838 18.047 11.3306 18.1326C11.3773 18.2182 11.4065 18.3123 11.4163 18.4093C11.4261 18.5064 11.4163 18.6044 11.3876 18.6976C11.3589 18.7908 11.3118 18.8773 11.249 18.952L11.244 18.958C10.6764 19.6827 9.84812 20.157 8.93581 20.2799C8.0235 20.4028 7.09922 20.1646 6.36 19.616C6.10748 19.4282 5.88171 19.2068 5.68898 18.958L5.69203 18.954ZM4.053 16.23C2.88232 16.1152 1.79308 15.5797 0.987078 14.723C0.341548 13.9801 -0.00335036 13.0229 0.020037 12.039V11.92C0.0706569 11.1809 0.32195 10.4697 0.746966 9.86298L0.818987 9.77398C1.26105 9.28741 1.56668 8.69267 1.70497 8.04998V6.27398C1.78311 6.08823 1.93107 5.94058 2.11696 5.86278C2.30285 5.78498 2.51184 5.78326 2.69899 5.85799C2.81934 5.90488 2.92563 5.98195 3.00759 6.08177C3.08955 6.18159 3.14444 6.30082 3.16701 6.42799V8.19999C3.17109 8.23319 3.17109 8.26678 3.16701 8.29998C2.98091 9.19482 2.5586 10.0235 1.94399 10.7C1.70744 11.0663 1.57322 11.4893 1.55507 11.925V12.115C1.53646 12.7278 1.74437 13.3259 2.13906 13.795C2.69495 14.3508 3.42895 14.6928 4.21205 14.761C7.06277 15.0625 9.93727 15.0625 12.788 14.761C13.5922 14.6909 14.3441 14.3325 14.905 13.752C15.2811 13.2938 15.4792 12.7154 15.463 12.123V11.923C15.4446 11.4861 15.3137 11.0614 15.083 10.69C14.441 10.022 13.9917 9.19268 13.783 8.28999C13.7799 8.25672 13.7799 8.22325 13.783 8.18998V6.41198C13.526 3.81198 10.859 2.19899 8.53798 2.19899C7.55373 2.19608 6.58469 2.44204 5.72096 2.91399C5.60283 2.98161 5.46914 3.01718 5.33303 3.01718C5.19691 3.01718 5.06309 2.98161 4.94496 2.91399C4.85975 2.86696 4.78482 2.80339 4.7245 2.727C4.66419 2.65062 4.61975 2.56295 4.59377 2.46915C4.56778 2.37536 4.56073 2.27732 4.57314 2.18078C4.58555 2.08425 4.61717 1.99116 4.66603 1.90699C4.74025 1.78036 4.85021 1.67844 4.98207 1.61398C6.05202 1.02673 7.25156 0.715673 8.47206 0.708984C11.5371 0.708984 14.9721 2.82899 15.3621 6.23499V8.01099C15.4965 8.65504 15.8027 9.25073 16.2481 9.73499C16.2744 9.76634 16.2981 9.79978 16.319 9.83498C16.724 10.429 16.9579 11.123 16.995 11.841L16.968 12.021C16.9974 13.006 16.6626 13.9672 16.028 14.721C15.2063 15.5858 14.0981 16.1221 12.9101 16.23C9.96584 16.546 6.99721 16.546 4.053 16.23Z" fill="#7A86A1"/>
</svg>
