<svg width="21" height="20" viewBox="0 0 21 20" fill="none" xmlns="http://www.w3.org/2000/svg">
<path d="M20.5 18.527L17.1 15.19L17.0201 15.068C16.8702 14.9196 16.6679 14.8363 16.4571 14.8363C16.2462 14.8363 16.0439 14.9196 15.8941 15.068C14.4818 16.3562 12.656 17.0981 10.7454 17.16C8.83481 17.222 6.96489 16.6 5.47208 15.406C3.99425 14.2319 3.00365 12.552 2.69156 10.6905C2.37946 8.829 2.76794 6.91789 3.78201 5.32599C4.8197 3.72305 6.39704 2.54462 8.22842 2.00404C10.0598 1.46347 12.0242 1.59648 13.766 2.37899C15.4994 3.13504 16.8935 4.50319 17.6819 6.22207C18.4703 7.94095 18.5978 9.89004 18.0401 11.697C17.9989 11.8291 17.9938 11.9698 18.0254 12.1046C18.0571 12.2393 18.1243 12.3631 18.22 12.463C18.3172 12.5642 18.4389 12.6385 18.5733 12.6788C18.7077 12.7191 18.8503 12.724 18.9871 12.693C19.1236 12.6634 19.2498 12.5982 19.3531 12.5041C19.4563 12.4099 19.5329 12.2902 19.575 12.157C20.243 10.0109 20.109 7.69534 19.1978 5.64075C18.2866 3.58615 16.6601 1.93239 14.621 0.986985C12.5708 0.0108256 10.2422 -0.211274 8.04446 0.359738C5.84674 0.93075 3.9207 2.25831 2.60501 4.10899C1.31451 5.94433 0.739142 8.18801 0.987213 10.4179C1.23528 12.6478 2.28974 14.7101 3.95206 16.217C5.63331 17.7459 7.79869 18.6348 10.0692 18.7282C12.3398 18.8217 14.5708 18.1136 16.372 16.728L19.388 19.683C19.5391 19.8293 19.7412 19.9111 19.9516 19.9111C20.1619 19.9111 20.364 19.8293 20.515 19.683C20.6619 19.5383 20.7454 19.3414 20.7475 19.1353C20.7495 18.9291 20.6699 18.7306 20.526 18.583L20.515 18.572L20.5 18.527Z" fill="black"/>
</svg>
